<?xml version="1.0" encoding="us-ascii" standalone="no"?><svg xmlns="http://www.w3.org/2000/svg" xmlns:xlink="http://www.w3.org/1999/xlink" contentStyleType="text/css" height="1189px" preserveAspectRatio="none" style="width:1491px;height:1189px;background:#FFFFFF;" version="1.1" viewBox="0 0 1491 1189" width="1491px" zoomAndPan="magnify"><defs/><g><!--cluster ??????????????????--><g id="cluster_&#22522;&#20110;&#28145;&#24230;&#23398;&#20064;&#30340;&#39135;&#29289;&#35782;&#21035;&#19982;&#33829;&#20859;&#25512;&#33616;&#31995;&#32479;"><rect fill="none" height="1023" rx="2.5" ry="2.5" style="stroke:#181818;stroke-width:1.0;" width="1199" x="286" y="7"/><text fill="#000000" font-family="sans-serif" font-size="14" font-weight="bold" lengthAdjust="spacing" textLength="259.875" x="755.5625" y="23.5332">&#22522;&#20110;&#28145;&#24230;&#23398;&#20064;&#30340;&#39135;&#29289;&#35782;&#21035;&#19982;&#33829;&#20859;&#25512;&#33616;&#31995;&#32479;</text></g><g id="elem_UC_Register"><ellipse cx="375.3032" cy="461.0087" fill="#F1F1F1" rx="51.3032" ry="15.5087" style="stroke:#181818;stroke-width:0.5;"/><text fill="#000000" font-family="sans-serif" font-size="14" lengthAdjust="spacing" textLength="56" x="344.3032" y="465.5253">&#29992;&#25143;&#27880;&#20876;</text></g><g id="elem_UC_Login"><ellipse cx="375.3032" cy="527.0087" fill="#F1F1F1" rx="51.3032" ry="15.5087" style="stroke:#181818;stroke-width:0.5;"/><text fill="#000000" font-family="sans-serif" font-size="14" lengthAdjust="spacing" textLength="56" x="344.3032" y="531.5253">&#29992;&#25143;&#30331;&#24405;</text></g><g id="elem_UC_Profile"><ellipse cx="375.2688" cy="730.1538" fill="#F1F1F1" rx="68.7688" ry="16.1538" style="stroke:#181818;stroke-width:0.5;"/><text fill="#000000" font-family="sans-serif" font-size="14" lengthAdjust="spacing" textLength="84" x="330.2688" y="734.6704">&#32500;&#25252;&#20010;&#20154;&#20449;&#24687;</text></g><g id="elem_UC_Upload"><ellipse cx="375.2688" cy="797.1538" fill="#F1F1F1" rx="68.7688" ry="16.1538" style="stroke:#181818;stroke-width:0.5;"/><text fill="#000000" font-family="sans-serif" font-size="14" lengthAdjust="spacing" textLength="84" x="330.2688" y="801.6704">&#19978;&#20256;&#39135;&#29289;&#22270;&#29255;</text></g><g id="elem_UC_Recognize"><ellipse cx="634.7688" cy="810.1538" fill="#F1F1F1" rx="68.7688" ry="16.1538" style="stroke:#181818;stroke-width:0.5;"/><text fill="#000000" font-family="sans-serif" font-size="14" lengthAdjust="spacing" textLength="84" x="589.7688" y="814.6704">&#39135;&#29289;&#22270;&#20687;&#35782;&#21035;</text></g><g id="elem_UC_Result"><ellipse cx="889.7688" cy="921.1538" fill="#F1F1F1" rx="68.7688" ry="16.1538" style="stroke:#181818;stroke-width:0.5;"/><text fill="#000000" font-family="sans-serif" font-size="14" lengthAdjust="spacing" textLength="84" x="844.7688" y="925.6704">&#26597;&#30475;&#35782;&#21035;&#32467;&#26524;</text></g><g id="elem_UC_MatchNutrition"><ellipse cx="889.7688" cy="849.1538" fill="#F1F1F1" rx="68.7688" ry="16.1538" style="stroke:#181818;stroke-width:0.5;"/><text fill="#000000" font-family="sans-serif" font-size="14" lengthAdjust="spacing" textLength="84" x="844.7688" y="853.6704">&#33829;&#20859;&#25104;&#20998;&#21305;&#37197;</text></g><g id="elem_UC_Analysis"><ellipse cx="1144.7688" cy="885.1538" fill="#F1F1F1" rx="68.7688" ry="16.1538" style="stroke:#181818;stroke-width:0.5;"/><text fill="#000000" font-family="sans-serif" font-size="14" lengthAdjust="spacing" textLength="84" x="1099.7688" y="889.6704">&#29983;&#25104;&#33829;&#20859;&#20998;&#26512;</text></g><g id="elem_UC_Recommend"><ellipse cx="1399.7688" cy="885.1538" fill="#F1F1F1" rx="68.7688" ry="16.1538" style="stroke:#181818;stroke-width:0.5;"/><text fill="#000000" font-family="sans-serif" font-size="14" lengthAdjust="spacing" textLength="84" x="1354.7688" y="889.6704">&#29983;&#25104;&#39278;&#39135;&#24314;&#35758;</text></g><g id="elem_UC_History"><ellipse cx="375.2688" cy="594.1538" fill="#F1F1F1" rx="68.7688" ry="16.1538" style="stroke:#181818;stroke-width:0.5;"/><text fill="#000000" font-family="sans-serif" font-size="14" lengthAdjust="spacing" textLength="84" x="330.2688" y="598.6704">&#26597;&#30475;&#35782;&#21035;&#21382;&#21490;</text></g><g id="elem_UC_Chart"><ellipse cx="375.7427" cy="662.1485" fill="#F1F1F1" rx="73.7427" ry="17.1485" style="stroke:#181818;stroke-width:0.5;"/><text fill="#000000" font-family="sans-serif" font-size="14" lengthAdjust="spacing" textLength="98" x="323.7427" y="666.6651">&#26597;&#30475;&#33829;&#20859;&#21487;&#35270;&#21270;</text></g><g id="elem_UC_UserManage"><ellipse cx="375.3032" cy="327.0087" fill="#F1F1F1" rx="51.3032" ry="15.5087" style="stroke:#181818;stroke-width:0.5;"/><text fill="#000000" font-family="sans-serif" font-size="14" lengthAdjust="spacing" textLength="56" x="344.3032" y="331.5253">&#29992;&#25143;&#31649;&#29702;</text></g><g id="elem_UC_RBAC"><ellipse cx="375.2688" cy="394.1538" fill="#F1F1F1" rx="68.7688" ry="16.1538" style="stroke:#181818;stroke-width:0.5;"/><text fill="#000000" font-family="sans-serif" font-size="14" lengthAdjust="spacing" textLength="84" x="330.2688" y="398.6704">&#35282;&#33394;&#26435;&#38480;&#31649;&#29702;</text></g><g id="elem_UC_Menu"><ellipse cx="375.3032" cy="59.0087" fill="#F1F1F1" rx="51.3032" ry="15.5087" style="stroke:#181818;stroke-width:0.5;"/><text fill="#000000" font-family="sans-serif" font-size="14" lengthAdjust="spacing" textLength="56" x="344.3032" y="63.5253">&#33756;&#21333;&#31649;&#29702;</text></g><g id="elem_UC_API"><ellipse cx="375.2688" cy="126.1538" fill="#F1F1F1" rx="68.7688" ry="16.1538" style="stroke:#181818;stroke-width:0.5;"/><text fill="#000000" font-family="sans-serif" font-size="14" lengthAdjust="spacing" textLength="84" x="330.2688" y="130.6704">&#25509;&#21475;&#26435;&#38480;&#31649;&#29702;</text></g><g id="elem_UC_Log"><ellipse cx="375.2688" cy="193.1538" fill="#F1F1F1" rx="68.7688" ry="16.1538" style="stroke:#181818;stroke-width:0.5;"/><text fill="#000000" font-family="sans-serif" font-size="14" lengthAdjust="spacing" textLength="84" x="330.2688" y="197.6704">&#25805;&#20316;&#26085;&#24535;&#26597;&#30475;</text></g><g id="elem_UC_Config"><ellipse cx="375.2688" cy="260.1538" fill="#F1F1F1" rx="68.7688" ry="16.1538" style="stroke:#181818;stroke-width:0.5;"/><text fill="#000000" font-family="sans-serif" font-size="14" lengthAdjust="spacing" textLength="84" x="330.2688" y="264.6704">&#31995;&#32479;&#37197;&#32622;&#31649;&#29702;</text></g><g id="elem_UC_FoodManage"><ellipse cx="375.2688" cy="864.1538" fill="#F1F1F1" rx="68.7688" ry="16.1538" style="stroke:#181818;stroke-width:0.5;"/><text fill="#000000" font-family="sans-serif" font-size="14" lengthAdjust="spacing" textLength="84" x="330.2688" y="868.6704">&#39135;&#29289;&#31867;&#21035;&#31649;&#29702;</text></g><g id="elem_UC_NutritionManage"><ellipse cx="375.2688" cy="931.1538" fill="#F1F1F1" rx="68.7688" ry="16.1538" style="stroke:#181818;stroke-width:0.5;"/><text fill="#000000" font-family="sans-serif" font-size="14" lengthAdjust="spacing" textLength="84" x="330.2688" y="935.6704">&#33829;&#20859;&#25968;&#25454;&#31649;&#29702;</text></g><g id="elem_UC_ModelManage"><ellipse cx="375.2688" cy="998.1538" fill="#F1F1F1" rx="68.7688" ry="16.1538" style="stroke:#181818;stroke-width:0.5;"/><text fill="#000000" font-family="sans-serif" font-size="14" lengthAdjust="spacing" textLength="84" x="330.2688" y="1002.6704">&#27169;&#22411;&#26435;&#37325;&#31649;&#29702;</text></g><!--entity Guest--><g id="elem_Guest"><ellipse cx="211" cy="484" fill="#F1F1F1" rx="16" ry="16" style="stroke:#181818;stroke-width:0.5;"/><path d="M211,504 C215,504 218,504 222,500 C230,500 238,508 238,516 L238,520 C238,524 234,528 230,528 L192,528 C188,528 184,524 184,520 L184,516 C184,508 192,500 200,500 C204,504 207,504 211,504 " fill="#F1F1F1" style="stroke:#181818;stroke-width:0.5;"/><text fill="#000000" font-family="sans-serif" font-size="14" lengthAdjust="spacing" textLength="28" x="197" y="543.0332">&#28216;&#23458;</text></g><!--entity User--><g id="elem_User"><ellipse cx="211" cy="669" fill="#F1F1F1" rx="16" ry="16" style="stroke:#181818;stroke-width:0.5;"/><path d="M211,689 C215,689 218,689 222,685 C230,685 238,693 238,701 L238,705 C238,709 234,713 230,713 L192,713 C188,713 184,709 184,705 L184,701 C184,693 192,685 200,685 C204,689 207,689 211,689 " fill="#F1F1F1" style="stroke:#181818;stroke-width:0.5;"/><text fill="#000000" font-family="sans-serif" font-size="14" lengthAdjust="spacing" textLength="56" x="183" y="728.0332">&#26222;&#36890;&#29992;&#25143;</text></g><!--entity Admin--><g id="elem_Admin"><ellipse cx="64" cy="241" fill="#F1F1F1" rx="16" ry="16" style="stroke:#181818;stroke-width:0.5;"/><path d="M64,261 C68,261 71,261 75,257 C83,257 91,265 91,273 L91,277 C91,281 87,285 83,285 L45,285 C41,285 37,281 37,277 L37,273 C37,265 45,257 53,257 C57,261 60,261 64,261 " fill="#F1F1F1" style="stroke:#181818;stroke-width:0.5;"/><text fill="#000000" font-family="sans-serif" font-size="14" lengthAdjust="spacing" textLength="70" x="29" y="300.0332">&#31995;&#32479;&#31649;&#29702;&#21592;</text></g><!--entity Maintainer--><g id="elem_Maintainer"><ellipse cx="64" cy="876" fill="#F1F1F1" rx="16" ry="16" style="stroke:#181818;stroke-width:0.5;"/><path d="M64,896 C68,896 71,896 75,892 C83,892 91,900 91,908 L91,912 C91,916 87,920 83,920 L45,920 C41,920 37,916 37,912 L37,908 C37,900 45,892 53,892 C57,896 60,896 64,896 " fill="#F1F1F1" style="stroke:#181818;stroke-width:0.5;"/><text fill="#000000" font-family="sans-serif" font-size="14" lengthAdjust="spacing" textLength="116" x="6" y="935.0332">&#27169;&#22411;/&#25968;&#25454;&#32500;&#25252;&#20154;&#21592;</text></g><!--link Guest to UC_Register--><g id="link_Guest_UC_Register"><path d="M238.83,499.41 C265.7,491.8 301.4767,481.6736 331.5167,473.1736 " fill="none" id="Guest-to-UC_Register" style="stroke:#181818;stroke-width:1.0;"/><polygon fill="#181818" points="337.29,471.54,327.5409,470.1415,332.4789,472.9013,329.7191,477.8393,337.29,471.54" style="stroke:#181818;stroke-width:1.0;"/></g><!--link Guest to UC_Login--><g id="link_Guest_UC_Login"><path d="M238.83,510.31 C262.9,513.27 292.805,516.9462 321.615,520.4962 " fill="none" id="Guest-to-UC_Login" style="stroke:#181818;stroke-width:1.0;"/><polygon fill="#181818" points="327.57,521.23,319.1267,516.1594,322.6075,520.6185,318.1484,524.0993,327.57,521.23" style="stroke:#181818;stroke-width:1.0;"/></g><!--link User to UC_Login--><g id="link_User_UC_Login"><path d="M222.89,652.26 C232.81,623.02 250.22,584.29 278,560 C292.53,547.3 306.3907,541.0059 324.1707,536.1659 " fill="none" id="User-to-UC_Login" style="stroke:#181818;stroke-width:1.0;"/><polygon fill="#181818" points="329.96,534.59,320.2254,533.0944,325.1356,535.9033,322.3266,540.8135,329.96,534.59" style="stroke:#181818;stroke-width:1.0;"/></g><!--link User to UC_Profile--><g id="link_User_UC_Profile"><path d="M239.2,698.36 C262.87,703.9 291.9075,710.6945 320.3175,717.3345 " fill="none" id="User-to-UC_Profile" style="stroke:#181818;stroke-width:1.0;"/><polygon fill="#181818" points="326.16,718.7,318.3065,712.7567,321.2912,717.5621,316.4858,720.5467,326.16,718.7" style="stroke:#181818;stroke-width:1.0;"/></g><!--link User to UC_Upload--><g id="link_User_UC_Upload"><path d="M239.01,727.59 C249.99,740.15 263.5,753.5 278,763 C292.85,772.74 305.1211,778.2139 321.5111,783.5139 " fill="none" id="User-to-UC_Upload" style="stroke:#181818;stroke-width:1.0;"/><polygon fill="#181818" points="327.22,785.36,319.8873,778.7849,322.4626,783.8216,317.4259,786.3968,327.22,785.36" style="stroke:#181818;stroke-width:1.0;"/></g><!--link User to UC_Result--><g id="link_User_UC_Result"><path d="M213.6,731.54 C217.82,812.84 232.25,994.28 278,1032 C460.79,1182.73 774.9601,996.1864 861.6901,939.4064 " fill="none" id="User-to-UC_Result" style="stroke:#181818;stroke-width:1.0;"/><polygon fill="#181818" points="866.71,936.12,856.9892,937.703,862.5267,938.8587,861.3711,944.3962,866.71,936.12" style="stroke:#181818;stroke-width:1.0;"/></g><!--link User to UC_History--><g id="link_User_UC_History"><path d="M239.13,659.77 C250.21,648.17 263.77,635.8 278,627 C292.91,617.79 304.9997,612.5705 321.2397,607.4305 " fill="none" id="User-to-UC_History" style="stroke:#181818;stroke-width:1.0;"/><polygon fill="#181818" points="326.96,605.62,317.1725,604.5222,322.1931,607.1287,319.5865,612.1493,326.96,605.62" style="stroke:#181818;stroke-width:1.0;"/></g><!--link User to UC_Chart--><g id="link_User_UC_Chart"><path d="M239.2,686.98 C260.52,683.05 285.0297,678.5191 311.6297,673.6091 " fill="none" id="User-to-UC_Chart" style="stroke:#181818;stroke-width:1.0;"/><polygon fill="#181818" points="317.53,672.52,307.9534,670.2201,312.6131,673.4276,309.4056,678.0872,317.53,672.52" style="stroke:#181818;stroke-width:1.0;"/></g><!--link UC_Upload to UC_Recognize--><g id="link_UC_Upload_UC_Recognize"><path d="M443.15,800.37 C481.3,802.29 523.0177,804.397 561.1877,806.327 " fill="none" id="UC_Upload-to-UC_Recognize" style="stroke:#181818;stroke-width:1.0;"/><polygon fill="#181818" points="567.18,806.63,558.3935,802.1806,562.1864,806.3775,557.9895,810.1704,567.18,806.63" style="stroke:#181818;stroke-width:1.0;"/><text fill="#000000" font-family="sans-serif" font-size="13" lengthAdjust="spacing" textLength="55" x="480" y="799.4951">&#171;include&#187;</text></g><!--link UC_Recognize to UC_MatchNutrition--><g id="link_UC_Recognize_UC_MatchNutrition"><path d="M692.78,818.76 C734.3,825.16 784.4701,832.8856 826.0401,839.2956 " fill="none" id="UC_Recognize-to-UC_MatchNutrition" style="stroke:#181818;stroke-width:1.0;"/><polygon fill="#181818" points="831.97,840.21,823.6847,834.8852,827.0284,839.448,822.4655,842.7917,831.97,840.21" style="stroke:#181818;stroke-width:1.0;"/><text fill="#000000" font-family="sans-serif" font-size="13" lengthAdjust="spacing" textLength="55" x="735" y="823.4951">&#171;include&#187;</text></g><!--link UC_MatchNutrition to UC_Analysis--><g id="link_UC_MatchNutrition_UC_Analysis"><path d="M949.36,857.31 C990.22,863.12 1038.6599,870.0145 1079.5499,875.8345 " fill="none" id="UC_MatchNutrition-to-UC_Analysis" style="stroke:#181818;stroke-width:1.0;"/><polygon fill="#181818" points="1085.49,876.68,1077.1435,871.4517,1080.5399,875.9754,1076.0162,879.3719,1085.49,876.68" style="stroke:#181818;stroke-width:1.0;"/><text fill="#000000" font-family="sans-serif" font-size="13" lengthAdjust="spacing" textLength="55" x="990" y="860.4951">&#171;include&#187;</text></g><!--link UC_Analysis to UC_Recommend--><g id="link_UC_Analysis_UC_Recommend"><path d="M1214.13,885 C1250.28,885 1288.58,885 1324.75,885 " fill="none" id="UC_Analysis-to-UC_Recommend" style="stroke:#181818;stroke-width:1.0;"/><polygon fill="#181818" points="1330.75,885,1321.75,881,1325.75,885,1321.75,889,1330.75,885" style="stroke:#181818;stroke-width:1.0;"/><text fill="#000000" font-family="sans-serif" font-size="13" lengthAdjust="spacing" textLength="55" x="1245" y="881.4951">&#171;include&#187;</text></g><!--link UC_Result to UC_Analysis--><g id="link_UC_Result_UC_Analysis"><path d="M949.36,912.7 C990.22,906.89 1038.6599,899.9955 1079.5499,894.1755 " fill="none" id="UC_Result-to-UC_Analysis" style="stroke:#181818;stroke-width:1.0;"/><polygon fill="#181818" points="1085.49,893.33,1076.0162,890.6381,1080.5399,894.0346,1077.1435,898.5583,1085.49,893.33" style="stroke:#181818;stroke-width:1.0;"/><text fill="#000000" font-family="sans-serif" font-size="13" lengthAdjust="spacing" textLength="55" x="990" y="896.4951">&#171;include&#187;</text></g><!--link Admin to UC_UserManage--><g id="link_Admin_UC_UserManage"><path d="M99.01,270.93 C155.93,282.51 264.4707,304.6025 326.4307,317.2225 " fill="none" id="Admin-to-UC_UserManage" style="stroke:#181818;stroke-width:1.0;"/><polygon fill="#181818" points="332.31,318.42,324.2894,312.7042,327.4106,317.4221,322.6927,320.5433,332.31,318.42" style="stroke:#181818;stroke-width:1.0;"/></g><!--link Admin to UC_RBAC--><g id="link_Admin_UC_RBAC"><path d="M99.29,280.54 C141.07,300.44 213.99,334.36 278,360 C296.47,367.4 311.5753,372.8912 329.1053,378.9112 " fill="none" id="Admin-to-UC_RBAC" style="stroke:#181818;stroke-width:1.0;"/><polygon fill="#181818" points="334.78,380.86,327.5671,374.1537,330.0511,379.236,324.9688,381.72,334.78,380.86" style="stroke:#181818;stroke-width:1.0;"/></g><!--link Admin to UC_Menu--><g id="link_Admin_UC_Menu"><path d="M99.05,228.83 C138.61,189.91 207.51,127.98 278,92 C296.45,82.59 312.4541,76.6405 330.6341,71.0605 " fill="none" id="Admin-to-UC_Menu" style="stroke:#181818;stroke-width:1.0;"/><polygon fill="#181818" points="336.37,69.3,326.5925,68.1169,331.5901,70.7671,328.9398,75.7647,336.37,69.3" style="stroke:#181818;stroke-width:1.0;"/></g><!--link Admin to UC_API--><g id="link_Admin_UC_API"><path d="M99.03,241.64 C114.83,231.69 134.04,220.17 152,211 C212.77,179.97 281.9237,155.4841 327.4737,140.6841 " fill="none" id="Admin-to-UC_API" style="stroke:#181818;stroke-width:1.0;"/><polygon fill="#181818" points="333.18,138.83,323.3844,137.8069,328.4247,140.3751,325.8565,145.4154,333.18,138.83" style="stroke:#181818;stroke-width:1.0;"/></g><!--link Admin to UC_Log--><g id="link_Admin_UC_Log"><path d="M99.06,252.52 C115.02,247.37 134.37,241.47 152,237 C208.3,222.74 267.6813,211.3525 312.9113,203.3725 " fill="none" id="Admin-to-UC_Log" style="stroke:#181818;stroke-width:1.0;"/><polygon fill="#181818" points="318.82,202.33,309.2619,199.9546,313.896,203.1987,310.6519,207.8329,318.82,202.33" style="stroke:#181818;stroke-width:1.0;"/></g><!--link Admin to UC_Config--><g id="link_Admin_UC_Config"><path d="M99.01,263.56 C148.71,262.92 236.2405,261.7876 300.4105,260.9576 " fill="none" id="Admin-to-UC_Config" style="stroke:#181818;stroke-width:1.0;"/><polygon fill="#181818" points="306.41,260.88,297.359,256.9967,301.4104,260.9447,297.4625,264.9961,306.41,260.88" style="stroke:#181818;stroke-width:1.0;"/></g><!--link Maintainer to UC_FoodManage--><g id="link_Maintainer_UC_FoodManage"><path d="M122.04,890.07 C132.01,888.62 142.3,887.21 152,886 C205.35,879.38 260.1243,874.0295 304.6543,870.0095 " fill="none" id="Maintainer-to-UC_FoodManage" style="stroke:#181818;stroke-width:1.0;"/><polygon fill="#181818" points="310.63,869.47,301.3068,866.2954,305.6503,869.9196,302.0261,874.263,310.63,869.47" style="stroke:#181818;stroke-width:1.0;"/></g><!--link Maintainer to UC_NutritionManage--><g id="link_Maintainer_UC_NutritionManage"><path d="M122.13,904.91 C176.01,910.48 250.6218,918.1931 306.1518,923.9331 " fill="none" id="Maintainer-to-UC_NutritionManage" style="stroke:#181818;stroke-width:1.0;"/><polygon fill="#181818" points="312.12,924.55,303.579,919.6458,307.1465,924.0359,302.7564,927.6034,312.12,924.55" style="stroke:#181818;stroke-width:1.0;"/></g><!--link Maintainer to UC_ModelManage--><g id="link_Maintainer_UC_ModelManage"><path d="M122.13,917.28 C183.61,936.94 274.1253,965.8918 328.2653,983.2118 " fill="none" id="Maintainer-to-UC_ModelManage" style="stroke:#181818;stroke-width:1.0;"/><polygon fill="#181818" points="333.98,985.04,326.6268,978.4879,329.2178,983.5165,324.1892,986.1075,333.98,985.04" style="stroke:#181818;stroke-width:1.0;"/></g><!--link Admin to User--><g id="link_Admin_User"><path d="M78.51,303.88 C106.18,385.54 163.2026,553.8924 190.8026,635.3324 " fill="none" id="Admin-to-User" style="stroke:#181818;stroke-width:1.0;"/><polygon fill="none" points="196.58,652.38,196.4851,633.4066,185.12,637.2582,196.58,652.38" style="stroke:#181818;stroke-width:1.0;"/></g><!--link Maintainer to User--><g id="link_Maintainer_User"><path d="M92.96,859.09 C118.88,822.08 146.8852,782.1145 172.5352,745.4845 " fill="none" id="Maintainer-to-User" style="stroke:#181818;stroke-width:1.0;"/><polygon fill="none" points="182.86,730.74,167.6204,742.0429,177.4501,748.9261,182.86,730.74" style="stroke:#181818;stroke-width:1.0;"/></g><!--SRC=[XPNRRjD048Rl_HIht5VS8nGfHE8W4LGLzHgjx6rgrR4hsn4g1mbKcgQ77A2KqXAQbf8sW71fYzGqflHblElaBLXxRMUt3k8YD_zyivwP_MUZeHaRs0OmrUAi3HJLHBAj6hfapQdwF3HX2Sn3UGuMqIDxGKCW24Ezg24EWB9jc2mCdo3BA2592ZL0UZtiV0RG0dVBoB9ZTTiPljpnttL9zJo8JLl8Z4B-cUkxRT_PzviL_EP34Cqf9LMFmXdItSUxQpV8vazIStpt5rdzulNxbCm4Q06gkar_z3WfAHHaSBllzUla_0Jt3_6FG-zYpzzvFJne-ojV1ySLNFtkzUg3PWSlkQJU7TIQh8WCU2P909Gj94EBdiBg9MTTN5aFlpQTVpo5Ygfbqy-bE7_RnPURCVV0AD8UU8YLtlj6g_UkzichunYTD8qPbOwNfxtUglTxZrMCF_xnLvPZUdfUCw32imc55nkikr6nib7KrQU8nqcxuxVM6EYx6sItDSAjicRpR3IZQXDNAtZzOhXKYza2jENPXsNRL4Fl2DDeqmIMITF8RZFEoUbGMx1KAqqFEmxj0hlzWUFmnPTAI5V-LJokLt3ZDCRlqMinp8KnCAkaSJmueZsyZ_dyB3JjCTVDd9XCcngr07Mw3C9OZjuELax9fyNXTbFafsxdyWBPQE7QfiWKa5uMogntSEDWt6cvoVi2k57pBbjaguEljbXldDk4Ja8xqzloBntnnBoXpwX5AMqV_yGD_230Tmn36TCyymJRHu5Fx91EObiSzBXSkpODGq5QbF12ai9N0qnCP8Lb4rIsMb9mDQB4A_5IyLgqEhmKMPwNOYFnMcIMv8nHUhHWu2QuTKlLPQsie6nM4a8HAsvCEk5QFCgAToRD9n6kbd1VnjKITFcV8wNmsKrcDJA-e8S65vJGpe8Is5OG0diAGcp3qVCTHpZFfOFN3POcU3SbdtoUPNyu0XwBVm40]--></g></svg>