<?xml version="1.0" encoding="us-ascii" standalone="no"?><svg xmlns="http://www.w3.org/2000/svg" xmlns:xlink="http://www.w3.org/1999/xlink" contentStyleType="text/css" height="1229px" preserveAspectRatio="none" style="width:713px;height:1229px;background:#FFFFFF;" version="1.1" viewBox="0 0 713 1229" width="713px" zoomAndPan="magnify"><defs/><g><text fill="#000000" font-family="sans-serif" font-size="14" font-weight="bold" lengthAdjust="spacing" textLength="173.25" x="268.625" y="34.5332">&#29992;&#25143;&#30331;&#24405;&#19982;&#26435;&#38480;&#26657;&#39564;&#27969;&#31243;&#22270;</text><rect fill="none" height="22.6406" style="stroke:none;stroke-width:1.0;" width="680.5" x="15" y="51.0645"/><ellipse cx="79" cy="88.7051" fill="#222222" rx="10" ry="10" style="stroke:#222222;stroke-width:1.0;"/><rect fill="#F1F1F1" height="35.0938" rx="12.5" ry="12.5" style="stroke:#181818;stroke-width:0.5;" width="116" x="21" y="118.7051"/><text fill="#000000" font-family="sans-serif" font-size="12" lengthAdjust="spacing" textLength="96" x="31" y="141.1621">&#36755;&#20837;&#29992;&#25143;&#21517;&#21644;&#23494;&#30721;</text><rect fill="#F1F1F1" height="35.0938" rx="12.5" ry="12.5" style="stroke:#181818;stroke-width:0.5;" width="92" x="33" y="173.7988"/><text fill="#000000" font-family="sans-serif" font-size="12" lengthAdjust="spacing" textLength="72" x="43" y="196.2559">&#25552;&#20132;&#30331;&#24405;&#35831;&#27714;</text><rect fill="#F1F1F1" height="35.0938" rx="12.5" ry="12.5" style="stroke:#181818;stroke-width:0.5;" width="92" x="33" y="834.7363"/><text fill="#000000" font-family="sans-serif" font-size="12" lengthAdjust="spacing" textLength="72" x="43" y="857.1934">&#36827;&#20837;&#31995;&#32479;&#39318;&#39029;</text><line style="stroke:#000000;stroke-width:1.5;" x1="15" x2="15" y1="51.0645" y2="1217.1113"/><rect fill="#F1F1F1" height="35.0938" rx="12.5" ry="12.5" style="stroke:#181818;stroke-width:0.5;" width="92" x="165" y="228.8926"/><text fill="#000000" font-family="sans-serif" font-size="12" lengthAdjust="spacing" textLength="72" x="175" y="251.3496">&#35843;&#29992;&#30331;&#24405;&#25509;&#21475;</text><rect fill="#F1F1F1" height="35.0938" rx="12.5" ry="12.5" style="stroke:#181818;stroke-width:0.5;" width="81" x="170.5" y="724.5488"/><text fill="#000000" font-family="sans-serif" font-size="12" lengthAdjust="spacing" textLength="61" x="180.5" y="747.0059">&#20445;&#23384; Token</text><rect fill="#F1F1F1" height="35.0938" rx="12.5" ry="12.5" style="stroke:#181818;stroke-width:0.5;" width="128" x="147" y="779.6426"/><text fill="#000000" font-family="sans-serif" font-size="12" lengthAdjust="spacing" textLength="108" x="157" y="802.0996">&#21152;&#36733;&#33756;&#21333;&#21644;&#36335;&#30001;&#26435;&#38480;</text><line style="stroke:#000000;stroke-width:1.5;" x1="141" x2="141" y1="51.0645" y2="1217.1113"/><rect fill="#F1F1F1" height="35.0938" rx="12.5" ry="12.5" style="stroke:#181818;stroke-width:0.5;" width="92" x="386" y="283.9863"/><text fill="#000000" font-family="sans-serif" font-size="12" lengthAdjust="spacing" textLength="72" x="396" y="306.4434">&#25509;&#25910;&#30331;&#24405;&#35831;&#27714;</text><rect fill="#F1F1F1" height="35.0938" rx="12.5" ry="12.5" style="stroke:#181818;stroke-width:0.5;" width="104" x="380" y="339.0801"/><text fill="#000000" font-family="sans-serif" font-size="12" lengthAdjust="spacing" textLength="84" x="390" y="361.5371">&#26657;&#39564;&#21442;&#25968;&#23436;&#25972;&#24615;</text><polygon fill="#F1F1F1" points="396,449.2676,468,449.2676,480,461.2676,468,473.2676,396,473.2676,384,461.2676,396,449.2676" style="stroke:#181818;stroke-width:0.5;"/><text fill="#000000" font-family="sans-serif" font-size="11" lengthAdjust="spacing" textLength="72" x="396" y="465.7686">&#36134;&#21495;&#26159;&#21542;&#23384;&#22312;?</text><text fill="#000000" font-family="sans-serif" font-size="11" lengthAdjust="spacing" textLength="22" x="362" y="458.8506">&#23384;&#22312;</text><text fill="#000000" font-family="sans-serif" font-size="11" lengthAdjust="spacing" textLength="33" x="480" y="458.8506">&#19981;&#23384;&#22312;</text><rect fill="#F1F1F1" height="35.0938" rx="12.5" ry="12.5" style="stroke:#181818;stroke-width:0.5;" width="68" x="340" y="483.2676"/><text fill="#000000" font-family="sans-serif" font-size="12" lengthAdjust="spacing" textLength="48" x="350" y="505.7246">&#26657;&#39564;&#23494;&#30721;</text><rect fill="#F1F1F1" height="35.0938" rx="12.5" ry="12.5" style="stroke:#181818;stroke-width:0.5;" width="104" x="438" y="483.2676"/><text fill="#000000" font-family="sans-serif" font-size="12" lengthAdjust="spacing" textLength="84" x="448" y="505.7246">&#36820;&#22238;&#36134;&#21495;&#19981;&#23384;&#22312;</text><ellipse cx="490" cy="549.3613" fill="none" rx="11" ry="11" style="stroke:#222222;stroke-width:1.0;"/><ellipse cx="490" cy="549.3613" fill="#222222" rx="6" ry="6" style="stroke:#222222;stroke-width:1.0;"/><polygon fill="#F1F1F1" points="396,580.3613,468,580.3613,480,592.3613,468,604.3613,396,604.3613,384,592.3613,396,580.3613" style="stroke:#181818;stroke-width:0.5;"/><text fill="#000000" font-family="sans-serif" font-size="11" lengthAdjust="spacing" textLength="72" x="396" y="596.8623">&#23494;&#30721;&#26159;&#21542;&#27491;&#30830;?</text><text fill="#000000" font-family="sans-serif" font-size="11" lengthAdjust="spacing" textLength="22" x="362" y="589.9443">&#27491;&#30830;</text><text fill="#000000" font-family="sans-serif" font-size="11" lengthAdjust="spacing" textLength="22" x="480" y="589.9443">&#38169;&#35823;</text><rect fill="#F1F1F1" height="35.0938" rx="12.5" ry="12.5" style="stroke:#181818;stroke-width:0.5;" width="108" x="307" y="614.3613"/><text fill="#000000" font-family="sans-serif" font-size="12" lengthAdjust="spacing" textLength="88" x="317" y="636.8184">&#29983;&#25104; JWT Token</text><rect fill="#F1F1F1" height="35.0938" rx="12.5" ry="12.5" style="stroke:#181818;stroke-width:0.5;" width="152" x="285" y="669.4551"/><text fill="#000000" font-family="sans-serif" font-size="12" lengthAdjust="spacing" textLength="132" x="295" y="691.9121">&#36820;&#22238;&#29992;&#25143;&#20449;&#24687;&#21644;&#26435;&#38480;&#25968;&#25454;</text><rect fill="#F1F1F1" height="35.0938" rx="12.5" ry="12.5" style="stroke:#181818;stroke-width:0.5;" width="92" x="457" y="614.3613"/><text fill="#000000" font-family="sans-serif" font-size="12" lengthAdjust="spacing" textLength="72" x="467" y="636.8184">&#36820;&#22238;&#23494;&#30721;&#38169;&#35823;</text><ellipse cx="503" cy="680.4551" fill="none" rx="11" ry="11" style="stroke:#222222;stroke-width:1.0;"/><ellipse cx="503" cy="680.4551" fill="#222222" rx="6" ry="6" style="stroke:#222222;stroke-width:1.0;"/><rect fill="#F1F1F1" height="35.0938" rx="12.5" ry="12.5" style="stroke:#181818;stroke-width:0.5;" width="128" x="368" y="889.8301"/><text fill="#000000" font-family="sans-serif" font-size="12" lengthAdjust="spacing" textLength="108" x="378" y="912.2871">&#29992;&#25143;&#35775;&#38382;&#21463;&#20445;&#25252;&#25509;&#21475;</text><polygon fill="#F1F1F1" points="391,944.9238,473,944.9238,485,956.9238,473,968.9238,391,968.9238,379,956.9238,391,944.9238" style="stroke:#181818;stroke-width:0.5;"/><text fill="#000000" font-family="sans-serif" font-size="11" lengthAdjust="spacing" textLength="82" x="391" y="961.4248">Token &#26159;&#21542;&#26377;&#25928;?</text><text fill="#000000" font-family="sans-serif" font-size="11" lengthAdjust="spacing" textLength="22" x="357" y="954.5068">&#26377;&#25928;</text><text fill="#000000" font-family="sans-serif" font-size="11" lengthAdjust="spacing" textLength="22" x="485" y="954.5068">&#26080;&#25928;</text><rect fill="#F1F1F1" height="35.0938" rx="12.5" ry="12.5" style="stroke:#181818;stroke-width:0.5;" width="128" x="288" y="978.9238"/><text fill="#000000" font-family="sans-serif" font-size="12" lengthAdjust="spacing" textLength="108" x="298" y="1001.3809">&#26657;&#39564;&#35282;&#33394;&#21644;&#25509;&#21475;&#26435;&#38480;</text><rect fill="#F1F1F1" height="35.0938" rx="12.5" ry="12.5" style="stroke:#181818;stroke-width:0.5;" width="152" x="436" y="978.9238"/><text fill="#000000" font-family="sans-serif" font-size="12" lengthAdjust="spacing" textLength="132" x="446" y="1001.3809">&#25298;&#32477;&#35775;&#38382;&#24182;&#35201;&#27714;&#37325;&#26032;&#30331;&#24405;</text><ellipse cx="512" cy="1045.0176" fill="none" rx="11" ry="11" style="stroke:#222222;stroke-width:1.0;"/><ellipse cx="512" cy="1045.0176" fill="#222222" rx="6" ry="6" style="stroke:#222222;stroke-width:1.0;"/><polygon fill="#F1F1F1" points="396,1076.0176,468,1076.0176,480,1088.0176,468,1100.0176,396,1100.0176,384,1088.0176,396,1076.0176" style="stroke:#181818;stroke-width:0.5;"/><text fill="#000000" font-family="sans-serif" font-size="11" lengthAdjust="spacing" textLength="72" x="396" y="1092.5186">&#26159;&#21542;&#20855;&#22791;&#26435;&#38480;?</text><text fill="#000000" font-family="sans-serif" font-size="11" lengthAdjust="spacing" textLength="11" x="373" y="1085.6006">&#26159;</text><text fill="#000000" font-family="sans-serif" font-size="11" lengthAdjust="spacing" textLength="11" x="480" y="1085.6006">&#21542;</text><rect fill="#F1F1F1" height="35.0938" rx="12.5" ry="12.5" style="stroke:#181818;stroke-width:0.5;" width="116" x="309" y="1110.0176"/><text fill="#000000" font-family="sans-serif" font-size="12" lengthAdjust="spacing" textLength="96" x="319" y="1132.4746">&#25191;&#34892;&#25509;&#21475;&#19994;&#21153;&#36923;&#36753;</text><rect fill="#F1F1F1" height="35.0938" rx="12.5" ry="12.5" style="stroke:#181818;stroke-width:0.5;" width="104" x="445" y="1110.0176"/><text fill="#000000" font-family="sans-serif" font-size="12" lengthAdjust="spacing" textLength="84" x="455" y="1132.4746">&#36820;&#22238;&#26080;&#26435;&#38480;&#25552;&#31034;</text><polygon fill="#F1F1F1" points="432,1151.1113,444,1163.1113,432,1175.1113,420,1163.1113,432,1151.1113" style="stroke:#181818;stroke-width:0.5;"/><ellipse cx="432" cy="1206.1113" fill="none" rx="11" ry="11" style="stroke:#222222;stroke-width:1.0;"/><ellipse cx="432" cy="1206.1113" fill="#222222" rx="6" ry="6" style="stroke:#222222;stroke-width:1.0;"/><line style="stroke:#000000;stroke-width:1.5;" x1="279" x2="279" y1="51.0645" y2="1217.1113"/><rect fill="#F1F1F1" height="35.0938" rx="12.5" ry="12.5" style="stroke:#181818;stroke-width:0.5;" width="92" x="598" y="394.1738"/><text fill="#000000" font-family="sans-serif" font-size="12" lengthAdjust="spacing" textLength="72" x="608" y="416.6309">&#26597;&#35810;&#29992;&#25143;&#20449;&#24687;</text><line style="stroke:#000000;stroke-width:1.5;" x1="592" x2="592" y1="51.0645" y2="1217.1113"/><line style="stroke:#000000;stroke-width:1.5;" x1="694" x2="694" y1="51.0645" y2="1217.1113"/><line style="stroke:#181818;stroke-width:1.0;" x1="79" x2="79" y1="98.7051" y2="118.7051"/><polygon fill="#181818" points="75,108.7051,79,118.7051,83,108.7051,79,112.7051" style="stroke:#181818;stroke-width:1.0;"/><line style="stroke:#181818;stroke-width:1.0;" x1="79" x2="79" y1="153.7988" y2="173.7988"/><polygon fill="#181818" points="75,163.7988,79,173.7988,83,163.7988,79,167.7988" style="stroke:#181818;stroke-width:1.0;"/><line style="stroke:#181818;stroke-width:1.0;" x1="211" x2="211" y1="759.6426" y2="779.6426"/><polygon fill="#181818" points="207,769.6426,211,779.6426,215,769.6426,211,773.6426" style="stroke:#181818;stroke-width:1.0;"/><line style="stroke:#181818;stroke-width:1.0;" x1="432" x2="432" y1="319.0801" y2="339.0801"/><polygon fill="#181818" points="428,329.0801,432,339.0801,436,329.0801,432,333.0801" style="stroke:#181818;stroke-width:1.0;"/><line style="stroke:#181818;stroke-width:1.0;" x1="490" x2="490" y1="518.3613" y2="538.3613"/><polygon fill="#181818" points="486,528.3613,490,538.3613,494,528.3613,490,532.3613" style="stroke:#181818;stroke-width:1.0;"/><line style="stroke:#181818;stroke-width:1.0;" x1="384" x2="374" y1="461.2676" y2="461.2676"/><line style="stroke:#181818;stroke-width:1.0;" x1="374" x2="374" y1="461.2676" y2="483.2676"/><polygon fill="#181818" points="370,473.2676,374,483.2676,378,473.2676,374,477.2676" style="stroke:#181818;stroke-width:1.0;"/><line style="stroke:#181818;stroke-width:1.0;" x1="480" x2="490" y1="461.2676" y2="461.2676"/><line style="stroke:#181818;stroke-width:1.0;" x1="490" x2="490" y1="461.2676" y2="483.2676"/><polygon fill="#181818" points="486,473.2676,490,483.2676,494,473.2676,490,477.2676" style="stroke:#181818;stroke-width:1.0;"/><line style="stroke:#181818;stroke-width:1.0;" x1="374" x2="374" y1="518.3613" y2="565.3613"/><line style="stroke:#181818;stroke-width:1.0;" x1="374" x2="432" y1="565.3613" y2="565.3613"/><line style="stroke:#181818;stroke-width:1.0;" x1="432" x2="432" y1="565.3613" y2="580.3613"/><polygon fill="#181818" points="428,570.3613,432,580.3613,436,570.3613,432,574.3613" style="stroke:#181818;stroke-width:1.0;"/><line style="stroke:#181818;stroke-width:1.0;" x1="361" x2="361" y1="649.4551" y2="669.4551"/><polygon fill="#181818" points="357,659.4551,361,669.4551,365,659.4551,361,663.4551" style="stroke:#181818;stroke-width:1.0;"/><line style="stroke:#181818;stroke-width:1.0;" x1="503" x2="503" y1="649.4551" y2="669.4551"/><polygon fill="#181818" points="499,659.4551,503,669.4551,507,659.4551,503,663.4551" style="stroke:#181818;stroke-width:1.0;"/><line style="stroke:#181818;stroke-width:1.0;" x1="384" x2="361" y1="592.3613" y2="592.3613"/><line style="stroke:#181818;stroke-width:1.0;" x1="361" x2="361" y1="592.3613" y2="614.3613"/><polygon fill="#181818" points="357,604.3613,361,614.3613,365,604.3613,361,608.3613" style="stroke:#181818;stroke-width:1.0;"/><line style="stroke:#181818;stroke-width:1.0;" x1="480" x2="503" y1="592.3613" y2="592.3613"/><line style="stroke:#181818;stroke-width:1.0;" x1="503" x2="503" y1="592.3613" y2="614.3613"/><polygon fill="#181818" points="499,604.3613,503,614.3613,507,604.3613,503,608.3613" style="stroke:#181818;stroke-width:1.0;"/><line style="stroke:#181818;stroke-width:1.0;" x1="361" x2="361" y1="704.5488" y2="709.5488"/><line style="stroke:#181818;stroke-width:1.0;" x1="361" x2="211" y1="709.5488" y2="709.5488"/><line style="stroke:#181818;stroke-width:1.0;" x1="211" x2="211" y1="709.5488" y2="724.5488"/><polygon fill="#181818" points="207,714.5488,211,724.5488,215,714.5488,211,718.5488" style="stroke:#181818;stroke-width:1.0;"/><line style="stroke:#181818;stroke-width:1.0;" x1="512" x2="512" y1="1014.0176" y2="1034.0176"/><polygon fill="#181818" points="508,1024.0176,512,1034.0176,516,1024.0176,512,1028.0176" style="stroke:#181818;stroke-width:1.0;"/><line style="stroke:#181818;stroke-width:1.0;" x1="379" x2="352" y1="956.9238" y2="956.9238"/><line style="stroke:#181818;stroke-width:1.0;" x1="352" x2="352" y1="956.9238" y2="978.9238"/><polygon fill="#181818" points="348,968.9238,352,978.9238,356,968.9238,352,972.9238" style="stroke:#181818;stroke-width:1.0;"/><line style="stroke:#181818;stroke-width:1.0;" x1="485" x2="512" y1="956.9238" y2="956.9238"/><line style="stroke:#181818;stroke-width:1.0;" x1="512" x2="512" y1="956.9238" y2="978.9238"/><polygon fill="#181818" points="508,968.9238,512,978.9238,516,968.9238,512,972.9238" style="stroke:#181818;stroke-width:1.0;"/><line style="stroke:#181818;stroke-width:1.0;" x1="352" x2="352" y1="1014.0176" y2="1061.0176"/><line style="stroke:#181818;stroke-width:1.0;" x1="352" x2="432" y1="1061.0176" y2="1061.0176"/><line style="stroke:#181818;stroke-width:1.0;" x1="432" x2="432" y1="1061.0176" y2="1076.0176"/><polygon fill="#181818" points="428,1066.0176,432,1076.0176,436,1066.0176,432,1070.0176" style="stroke:#181818;stroke-width:1.0;"/><line style="stroke:#181818;stroke-width:1.0;" x1="432" x2="432" y1="924.9238" y2="944.9238"/><polygon fill="#181818" points="428,934.9238,432,944.9238,436,934.9238,432,938.9238" style="stroke:#181818;stroke-width:1.0;"/><line style="stroke:#181818;stroke-width:1.0;" x1="384" x2="367" y1="1088.0176" y2="1088.0176"/><line style="stroke:#181818;stroke-width:1.0;" x1="367" x2="367" y1="1088.0176" y2="1110.0176"/><polygon fill="#181818" points="363,1100.0176,367,1110.0176,371,1100.0176,367,1104.0176" style="stroke:#181818;stroke-width:1.0;"/><line style="stroke:#181818;stroke-width:1.0;" x1="480" x2="497" y1="1088.0176" y2="1088.0176"/><line style="stroke:#181818;stroke-width:1.0;" x1="497" x2="497" y1="1088.0176" y2="1110.0176"/><polygon fill="#181818" points="493,1100.0176,497,1110.0176,501,1100.0176,497,1104.0176" style="stroke:#181818;stroke-width:1.0;"/><line style="stroke:#181818;stroke-width:1.0;" x1="367" x2="367" y1="1145.1113" y2="1163.1113"/><line style="stroke:#181818;stroke-width:1.0;" x1="367" x2="420" y1="1163.1113" y2="1163.1113"/><polygon fill="#181818" points="410,1159.1113,420,1163.1113,410,1167.1113,414,1163.1113" style="stroke:#181818;stroke-width:1.0;"/><line style="stroke:#181818;stroke-width:1.0;" x1="497" x2="497" y1="1145.1113" y2="1163.1113"/><line style="stroke:#181818;stroke-width:1.0;" x1="497" x2="444" y1="1163.1113" y2="1163.1113"/><polygon fill="#181818" points="454,1159.1113,444,1163.1113,454,1167.1113,450,1163.1113" style="stroke:#181818;stroke-width:1.0;"/><line style="stroke:#181818;stroke-width:1.0;" x1="432" x2="432" y1="1175.1113" y2="1195.1113"/><polygon fill="#181818" points="428,1185.1113,432,1195.1113,436,1185.1113,432,1189.1113" style="stroke:#181818;stroke-width:1.0;"/><line style="stroke:#181818;stroke-width:1.0;" x1="79" x2="79" y1="208.8926" y2="213.8926"/><line style="stroke:#181818;stroke-width:1.0;" x1="79" x2="211" y1="213.8926" y2="213.8926"/><line style="stroke:#181818;stroke-width:1.0;" x1="211" x2="211" y1="213.8926" y2="228.8926"/><polygon fill="#181818" points="207,218.8926,211,228.8926,215,218.8926,211,222.8926" style="stroke:#181818;stroke-width:1.0;"/><line style="stroke:#181818;stroke-width:1.0;" x1="211" x2="211" y1="263.9863" y2="268.9863"/><line style="stroke:#181818;stroke-width:1.0;" x1="211" x2="432" y1="268.9863" y2="268.9863"/><line style="stroke:#181818;stroke-width:1.0;" x1="432" x2="432" y1="268.9863" y2="283.9863"/><polygon fill="#181818" points="428,273.9863,432,283.9863,436,273.9863,432,277.9863" style="stroke:#181818;stroke-width:1.0;"/><line style="stroke:#181818;stroke-width:1.0;" x1="432" x2="432" y1="374.1738" y2="379.1738"/><line style="stroke:#181818;stroke-width:1.0;" x1="432" x2="644" y1="379.1738" y2="379.1738"/><line style="stroke:#181818;stroke-width:1.0;" x1="644" x2="644" y1="379.1738" y2="394.1738"/><polygon fill="#181818" points="640,384.1738,644,394.1738,648,384.1738,644,388.1738" style="stroke:#181818;stroke-width:1.0;"/><line style="stroke:#181818;stroke-width:1.0;" x1="644" x2="644" y1="429.2676" y2="434.2676"/><line style="stroke:#181818;stroke-width:1.0;" x1="644" x2="432" y1="434.2676" y2="434.2676"/><line style="stroke:#181818;stroke-width:1.0;" x1="432" x2="432" y1="434.2676" y2="449.2676"/><polygon fill="#181818" points="428,439.2676,432,449.2676,436,439.2676,432,443.2676" style="stroke:#181818;stroke-width:1.0;"/><line style="stroke:#181818;stroke-width:1.0;" x1="211" x2="211" y1="814.7363" y2="819.7363"/><line style="stroke:#181818;stroke-width:1.0;" x1="211" x2="79" y1="819.7363" y2="819.7363"/><line style="stroke:#181818;stroke-width:1.0;" x1="79" x2="79" y1="819.7363" y2="834.7363"/><polygon fill="#181818" points="75,824.7363,79,834.7363,83,824.7363,79,828.7363" style="stroke:#181818;stroke-width:1.0;"/><line style="stroke:#181818;stroke-width:1.0;" x1="79" x2="79" y1="869.8301" y2="874.8301"/><line style="stroke:#181818;stroke-width:1.0;" x1="79" x2="432" y1="874.8301" y2="874.8301"/><line style="stroke:#181818;stroke-width:1.0;" x1="432" x2="432" y1="874.8301" y2="889.8301"/><polygon fill="#181818" points="428,879.8301,432,889.8301,436,879.8301,432,883.8301" style="stroke:#181818;stroke-width:1.0;"/><text fill="#000000" font-family="sans-serif" font-size="18" lengthAdjust="spacing" textLength="36" x="60" y="69.75">&#29992;&#25143;</text><text fill="#000000" font-family="sans-serif" font-size="18" lengthAdjust="spacing" textLength="77" x="171.5" y="69.75">Vue3&#21069;&#31471;</text><text fill="#000000" font-family="sans-serif" font-size="18" lengthAdjust="spacing" textLength="98" x="386.5" y="69.75">FastAPI&#21518;&#31471;</text><text fill="#000000" font-family="sans-serif" font-size="18" lengthAdjust="spacing" textLength="54" x="616" y="69.75">&#25968;&#25454;&#24211;</text><!--SRC=[RPBFRjf04CRlVWeVatDl-53rKgazzH2rvqXrLDI8LCMzSGY9qW31s2KcG8624_wfLJ1faq11mCjuPjTlqRN71gVYkBipt-_R-KPBQeUgpAmXvYQiFeT5nPsMi7NgrKtisDxF8ZvasV026aj9ob1PHafh-vyrAS6Nbt3MeqimTIWNmVdAEbb5Ig1XkhCk2N9dWdSdYkX_-qLz1dcT_N8oedjyAbgf14izC6xyafVxQUt5crTWbgXAlA3r-5GeGSx0EC7A64P5hDpZyS3l5cVKHp2xz3lRFUvSapjtPMFMsQAVF91t-7qVZ0dM733xS5k3vl3vhgnzK5Fo3Xrt9LcEcE47rSEqAk-uKprMmLSMD7wGslf54IzfxUYJfARU9m-a04WY1CJR6sQFra0w1dBCQcFEb5-_svFtZZwgAMN3Y7zAJ3sCA_XxPCspwjnnOhu8IjV_cteQZBjg2UyHD0653byikD44lI9WVE8mwuwGIcmd1ARXRyEVEPktlVwLPpziovFA-MZbLKTWL0KB2zqeVdyu0LOEXzFCOoMt6KvmZAN11sMU_-rF8128JD44iDfPLr-KsRmLGly-ydvMx95thkFLc3PhMqhXGfnDe7jEoXiZDPeivWVS3k7kz3iKREzupfVV8WkYFvQ0RuYICapMdIaHp0V_0m00]--></g></svg>