<?xml version="1.0" encoding="us-ascii" standalone="no"?><svg xmlns="http://www.w3.org/2000/svg" xmlns:xlink="http://www.w3.org/1999/xlink" contentStyleType="text/css" height="1081px" preserveAspectRatio="none" style="width:547px;height:1081px;background:#FFFFFF;" version="1.1" viewBox="0 0 547 1081" width="547px" zoomAndPan="magnify"><defs/><g><text fill="#000000" font-family="sans-serif" font-size="14" font-weight="bold" lengthAdjust="spacing" textLength="101.0625" x="215.9688" y="24.5332">&#35782;&#21035;&#35760;&#24405;&#29366;&#24577;&#22270;</text><ellipse cx="371" cy="54.6094" fill="#222222" rx="10" ry="10" style="stroke:#222222;stroke-width:1.0;"/><g id="&#24050;&#21019;&#24314;"><rect fill="#F1F1F1" height="50" rx="12.5" ry="12.5" style="stroke:#181818;stroke-width:0.5;" width="62" x="340" y="142.6094"/><line style="stroke:#181818;stroke-width:0.5;" x1="340" x2="402" y1="170.2188" y2="170.2188"/><text fill="#000000" font-family="sans-serif" font-size="14" lengthAdjust="spacing" textLength="42" x="350" y="162.1426">&#24050;&#21019;&#24314;</text></g><g id="&#24453;&#35782;&#21035;"><rect fill="#F1F1F1" height="50" rx="12.5" ry="12.5" style="stroke:#181818;stroke-width:0.5;" width="62" x="280" y="270.6094"/><line style="stroke:#181818;stroke-width:0.5;" x1="280" x2="342" y1="298.2188" y2="298.2188"/><text fill="#000000" font-family="sans-serif" font-size="14" lengthAdjust="spacing" textLength="42" x="290" y="290.1426">&#24453;&#35782;&#21035;</text></g><g id="&#22833;&#36133;"><rect fill="#F1F1F1" height="50" rx="12.5" ry="12.5" style="stroke:#181818;stroke-width:0.5;" width="50" x="406" y="270.6094"/><line style="stroke:#181818;stroke-width:0.5;" x1="406" x2="456" y1="298.2188" y2="298.2188"/><text fill="#000000" font-family="sans-serif" font-size="14" lengthAdjust="spacing" textLength="28" x="417" y="290.1426">&#22833;&#36133;</text></g><g id="&#35782;&#21035;&#20013;"><rect fill="#F1F1F1" height="50" rx="12.5" ry="12.5" style="stroke:#181818;stroke-width:0.5;" width="62" x="280" y="398.6094"/><line style="stroke:#181818;stroke-width:0.5;" x1="280" x2="342" y1="426.2188" y2="426.2188"/><text fill="#000000" font-family="sans-serif" font-size="14" lengthAdjust="spacing" textLength="42" x="290" y="418.1426">&#35782;&#21035;&#20013;</text></g><g id="&#35782;&#21035;&#25104;&#21151;"><rect fill="#F1F1F1" height="50" rx="12.5" ry="12.5" style="stroke:#181818;stroke-width:0.5;" width="76" x="198" y="526.6094"/><line style="stroke:#181818;stroke-width:0.5;" x1="198" x2="274" y1="554.2188" y2="554.2188"/><text fill="#000000" font-family="sans-serif" font-size="14" lengthAdjust="spacing" textLength="56" x="208" y="546.1426">&#35782;&#21035;&#25104;&#21151;</text></g><g id="&#35782;&#21035;&#22833;&#36133;"><rect fill="#F1F1F1" height="50" rx="12.5" ry="12.5" style="stroke:#181818;stroke-width:0.5;" width="76" x="350" y="606.6094"/><line style="stroke:#181818;stroke-width:0.5;" x1="350" x2="426" y1="634.2188" y2="634.2188"/><text fill="#000000" font-family="sans-serif" font-size="14" lengthAdjust="spacing" textLength="56" x="360" y="626.1426">&#35782;&#21035;&#22833;&#36133;</text></g><g id="&#33829;&#20859;&#20998;&#26512;&#20013;"><rect fill="#F1F1F1" height="50" rx="12.5" ry="12.5" style="stroke:#181818;stroke-width:0.5;" width="90" x="159" y="686.6094"/><line style="stroke:#181818;stroke-width:0.5;" x1="159" x2="249" y1="714.2188" y2="714.2188"/><text fill="#000000" font-family="sans-serif" font-size="14" lengthAdjust="spacing" textLength="70" x="169" y="706.1426">&#33829;&#20859;&#20998;&#26512;&#20013;</text></g><g id="&#20998;&#26512;&#23436;&#25104;"><rect fill="#F1F1F1" height="50" rx="12.5" ry="12.5" style="stroke:#181818;stroke-width:0.5;" width="76" x="7" y="814.6094"/><line style="stroke:#181818;stroke-width:0.5;" x1="7" x2="83" y1="842.2188" y2="842.2188"/><text fill="#000000" font-family="sans-serif" font-size="14" lengthAdjust="spacing" textLength="56" x="17" y="834.1426">&#20998;&#26512;&#23436;&#25104;</text></g><g id="&#20998;&#26512;&#22833;&#36133;"><rect fill="#F1F1F1" height="50" rx="12.5" ry="12.5" style="stroke:#181818;stroke-width:0.5;" width="76" x="199" y="814.6094"/><line style="stroke:#181818;stroke-width:0.5;" x1="199" x2="275" y1="842.2188" y2="842.2188"/><text fill="#000000" font-family="sans-serif" font-size="14" lengthAdjust="spacing" textLength="56" x="209" y="834.1426">&#20998;&#26512;&#22833;&#36133;</text></g><g id="&#24050;&#24402;&#26723;"><rect fill="#F1F1F1" height="50" rx="12.5" ry="12.5" style="stroke:#181818;stroke-width:0.5;" width="62" x="238" y="942.6094"/><line style="stroke:#181818;stroke-width:0.5;" x1="238" x2="300" y1="970.2188" y2="970.2188"/><text fill="#000000" font-family="sans-serif" font-size="14" lengthAdjust="spacing" textLength="42" x="248" y="962.1426">&#24050;&#24402;&#26723;</text></g><ellipse cx="269" cy="1064.6094" fill="none" rx="11" ry="11" style="stroke:#222222;stroke-width:1.0;"/><ellipse cx="269" cy="1064.6094" fill="#222222" rx="6" ry="6" style="stroke:#222222;stroke-width:1.0;"/><!--link *start* to ???--><g id="link_*start*_&#24050;&#21019;&#24314;"><path d="M371,64.6894 C371,81.4694 371,111.8294 371,136.2594 " fill="none" id="*start*-to-&#24050;&#21019;&#24314;" style="stroke:#181818;stroke-width:1.0;"/><polygon fill="#181818" points="371,142.2594,375,133.2594,371,137.2594,367,133.2594,371,142.2594" style="stroke:#181818;stroke-width:1.0;"/><text fill="#000000" font-family="sans-serif" font-size="13" lengthAdjust="spacing" textLength="78" x="372" y="109.1045">&#29992;&#25143;&#19978;&#20256;&#22270;&#29255;</text></g><!--link ??? to ???--><g id="link_&#24050;&#21019;&#24314;_&#24453;&#35782;&#21035;"><path d="M339.69,186.9794 C327.41,195.9994 314.68,208.0794 308,222.6094 C301.15,237.4994 301.0629,250.0897 303.6129,264.6197 " fill="none" id="&#24050;&#21019;&#24314;-to-&#24453;&#35782;&#21035;" style="stroke:#181818;stroke-width:1.0;"/><polygon fill="#181818" points="304.65,270.5294,307.0341,260.9734,303.7857,265.6046,299.1545,262.3563,304.65,270.5294" style="stroke:#181818;stroke-width:1.0;"/><text fill="#000000" font-family="sans-serif" font-size="13" lengthAdjust="spacing" textLength="78" x="309" y="237.1045">&#22270;&#29255;&#20445;&#23384;&#25104;&#21151;</text></g><!--link ??? to ??--><g id="link_&#24050;&#21019;&#24314;_&#22833;&#36133;"><path d="M382.57,192.8994 C393.19,215.2194 406.2693,242.6828 416.8893,264.9728 " fill="none" id="&#24050;&#21019;&#24314;-to-&#22833;&#36133;" style="stroke:#181818;stroke-width:1.0;"/><polygon fill="#181818" points="419.47,270.3894,419.21,260.544,417.3194,265.8755,411.9878,263.9849,419.47,270.3894" style="stroke:#181818;stroke-width:1.0;"/><text fill="#000000" font-family="sans-serif" font-size="13" lengthAdjust="spacing" textLength="134" x="405" y="237.1045">&#22270;&#29255;&#26684;&#24335;&#38169;&#35823;/&#20445;&#23384;&#22833;&#36133;</text></g><!--link ??? to ???--><g id="link_&#24453;&#35782;&#21035;_&#35782;&#21035;&#20013;"><path d="M311,320.8994 C311,343.2194 311,370.0994 311,392.3894 " fill="none" id="&#24453;&#35782;&#21035;-to-&#35782;&#21035;&#20013;" style="stroke:#181818;stroke-width:1.0;"/><polygon fill="#181818" points="311,398.3894,315,389.3894,311,393.3894,307,389.3894,311,398.3894" style="stroke:#181818;stroke-width:1.0;"/><text fill="#000000" font-family="sans-serif" font-size="13" lengthAdjust="spacing" textLength="78" x="312" y="365.1045">&#35843;&#29992;&#27169;&#22411;&#26381;&#21153;</text></g><!--link ??? to ????--><g id="link_&#35782;&#21035;&#20013;_&#35782;&#21035;&#25104;&#21151;"><path d="M279.75,438.3194 C263.53,447.2494 245.22,460.6194 236,478.6094 C228.53,493.1794 227.9157,505.7522 229.8657,520.3522 " fill="none" id="&#35782;&#21035;&#20013;-to-&#35782;&#21035;&#25104;&#21151;" style="stroke:#181818;stroke-width:1.0;"/><polygon fill="#181818" points="230.66,526.2994,233.4333,516.849,229.9981,521.3434,225.5037,517.9081,230.66,526.2994" style="stroke:#181818;stroke-width:1.0;"/><text fill="#000000" font-family="sans-serif" font-size="13" lengthAdjust="spacing" textLength="104" x="237" y="493.1045">&#27169;&#22411;&#36820;&#22238;&#26377;&#25928;&#32467;&#26524;</text></g><!--link ??? to ????--><g id="link_&#35782;&#21035;&#20013;_&#35782;&#21035;&#22833;&#36133;"><path d="M328.87,448.7094 C334.95,457.7394 341.37,468.3194 346,478.6094 C365.36,521.6894 376.5495,569.8407 382.5395,600.5007 " fill="none" id="&#35782;&#21035;&#20013;-to-&#35782;&#21035;&#22833;&#36133;" style="stroke:#181818;stroke-width:1.0;"/><polygon fill="#181818" points="383.69,606.3894,385.8901,596.7894,382.7313,601.4821,378.0385,598.3233,383.69,606.3894" style="stroke:#181818;stroke-width:1.0;"/><text fill="#000000" font-family="sans-serif" font-size="13" lengthAdjust="spacing" textLength="147" x="354" y="493.1045">&#27169;&#22411;&#25512;&#29702;&#24322;&#24120;/&#26080;&#35782;&#21035;&#32467;&#26524;</text></g><!--link ???? to ?????--><g id="link_&#35782;&#21035;&#25104;&#21151;_&#33829;&#20859;&#20998;&#26512;&#20013;"><path d="M231.07,576.9494 C225.04,606.7294 216.0812,650.9488 210.0712,680.6188 " fill="none" id="&#35782;&#21035;&#25104;&#21151;-to-&#33829;&#20859;&#20998;&#26512;&#20013;" style="stroke:#181818;stroke-width:1.0;"/><polygon fill="#181818" points="208.88,686.4994,214.5871,678.4726,209.8726,681.5989,206.7464,676.8844,208.88,686.4994" style="stroke:#181818;stroke-width:1.0;"/><text fill="#000000" font-family="sans-serif" font-size="13" lengthAdjust="spacing" textLength="91" x="226" y="637.1045">&#26597;&#35810;&#33829;&#20859;&#25968;&#25454;&#24211;</text></g><!--link ????? to ????--><g id="link_&#33829;&#20859;&#20998;&#26512;&#20013;_&#20998;&#26512;&#23436;&#25104;"><path d="M158.9,721.0594 C130.29,728.5694 94.41,742.2694 71,766.6094 C58.47,779.6394 53.2111,793.2799 49.8111,808.7099 " fill="none" id="&#33829;&#20859;&#20998;&#26512;&#20013;-to-&#20998;&#26512;&#23436;&#25104;" style="stroke:#181818;stroke-width:1.0;"/><polygon fill="#181818" points="48.52,814.5694,54.363,806.641,49.5959,809.6865,46.5504,804.9195,48.52,814.5694" style="stroke:#181818;stroke-width:1.0;"/><text fill="#000000" font-family="sans-serif" font-size="13" lengthAdjust="spacing" textLength="117" x="72" y="781.1045">&#29983;&#25104;&#33829;&#20859;&#20998;&#26512;&#19982;&#25512;&#33616;</text></g><!--link ????? to ????--><g id="link_&#33829;&#20859;&#20998;&#26512;&#20013;_&#20998;&#26512;&#22833;&#36133;"><path d="M199.06,736.7794 C197.12,750.9994 196.32,769.1594 201,784.6094 C204.2,795.1794 206.7706,800.6671 212.9806,809.4671 " fill="none" id="&#33829;&#20859;&#20998;&#26512;&#20013;-to-&#20998;&#26512;&#22833;&#36133;" style="stroke:#181818;stroke-width:1.0;"/><polygon fill="#181818" points="216.44,814.3694,214.519,804.7097,213.5571,810.2841,207.9827,809.3223,216.44,814.3694" style="stroke:#181818;stroke-width:1.0;"/><text fill="#000000" font-family="sans-serif" font-size="13" lengthAdjust="spacing" textLength="147" x="202" y="781.1045">&#33829;&#20859;&#25968;&#25454;&#32570;&#22833;/&#25968;&#25454;&#24211;&#24322;&#24120;</text></g><!--link ???? to ???--><g id="link_&#20998;&#26512;&#23436;&#25104;_&#24050;&#24402;&#26723;"><path d="M43.88,864.6094 C44.48,880.2194 47.93,899.9494 60,912.6094 C84.31,938.0994 179.6883,954.4447 231.7983,961.7647 " fill="none" id="&#20998;&#26512;&#23436;&#25104;-to-&#24050;&#24402;&#26723;" style="stroke:#181818;stroke-width:1.0;"/><polygon fill="#181818" points="237.74,962.5994,229.3839,957.3863,232.7886,961.9038,228.2711,965.3085,237.74,962.5994" style="stroke:#181818;stroke-width:1.0;"/><text fill="#000000" font-family="sans-serif" font-size="13" lengthAdjust="spacing" textLength="182" x="61" y="909.1045">&#20445;&#23384;&#35782;&#21035;&#35760;&#24405;&#12289;&#26126;&#32454;&#21644;&#25512;&#33616;&#32467;&#26524;</text></g><!--link ???? to ???--><g id="link_&#35782;&#21035;&#22833;&#36133;_&#24050;&#24402;&#26723;"><path d="M389.98,656.7994 C393.01,708.0694 393.82,829.6994 343,912.6094 C332.86,929.1494 320.7347,939.1188 305.4247,948.2388 " fill="none" id="&#35782;&#21035;&#22833;&#36133;-to-&#24050;&#24402;&#26723;" style="stroke:#181818;stroke-width:1.0;"/><polygon fill="#181818" points="300.27,951.3094,310.0492,950.1399,304.5656,948.7505,305.955,943.267,300.27,951.3094" style="stroke:#181818;stroke-width:1.0;"/><text fill="#000000" font-family="sans-serif" font-size="13" lengthAdjust="spacing" textLength="78" x="388" y="781.1045">&#20445;&#23384;&#22833;&#36133;&#29366;&#24577;</text></g><!--link ???? to ???--><g id="link_&#20998;&#26512;&#22833;&#36133;_&#24050;&#24402;&#26723;"><path d="M243.17,864.8994 C248.84,887.2194 255.7133,914.2839 261.3733,936.5739 " fill="none" id="&#20998;&#26512;&#22833;&#36133;-to-&#24050;&#24402;&#26723;" style="stroke:#181818;stroke-width:1.0;"/><polygon fill="#181818" points="262.85,942.3894,264.5119,932.6817,261.6194,937.5432,256.758,934.6507,262.85,942.3894" style="stroke:#181818;stroke-width:1.0;"/><text fill="#000000" font-family="sans-serif" font-size="13" lengthAdjust="spacing" textLength="78" x="256" y="909.1045">&#20445;&#23384;&#24322;&#24120;&#20449;&#24687;</text></g><!--link ??? to *end*--><g id="link_&#24050;&#24402;&#26723;_*end*"><path d="M269,993.0694 C269,1012.6494 269,1033.0994 269,1047.4094 " fill="none" id="&#24050;&#24402;&#26723;-to-*end*" style="stroke:#181818;stroke-width:1.0;"/><polygon fill="#181818" points="269,1053.4094,273,1044.4094,269,1048.4094,265,1044.4094,269,1053.4094" style="stroke:#181818;stroke-width:1.0;"/></g><!--SRC=[VPBFJi904CRl-nGzcv3UFVWYngC74uyy06YefG8s_8aOQg5g4n93MusHXXPu63gpwrkuxK1B2NhRxlpc-xxEJlMgUdsf25y3_Lru0Im7tFZ6MXr6AyREJowKIkLCWVadw2E85igfmljJrET9Q2JnH4AyUSTOKS_eLOFq94r4idw6sH1r4upn8Vps8RxSdCH93F73J_z9-BvARKH8armsxQDZ4ivagmXkqrHJ1-nxjDfWEAme5p3vIvv8iUx3o4QhYGETHpsqhQDTUS2jVcVAJGtY6mX35Hyd16txMSaeqp1TQ4IWQsYR51R7hl1Vw1u70ROzMFJO8PUD9li2hoNrii6FvQ4CTcGSqJR_Qz_5ttVayKBUgxaz_OuSyRxZxk6NNNHUfG2znlwcR6fr77Puf46tHK5ASznQ7zUX8kqQAqNzWyyY9ci7wpuj7DLJMguf-mK0]--></g></svg>