<?xml version="1.0" encoding="us-ascii" standalone="no"?><svg xmlns="http://www.w3.org/2000/svg" xmlns:xlink="http://www.w3.org/1999/xlink" contentStyleType="text/css" height="1792px" preserveAspectRatio="none" style="width:1043px;height:1792px;background:#FFFFFF;" version="1.1" viewBox="0 0 1043 1792" width="1043px" zoomAndPan="magnify"><defs/><g><text fill="#000000" font-family="sans-serif" font-size="14" font-weight="bold" lengthAdjust="spacing" textLength="101.0625" x="469.7188" y="34.5332">&#26680;&#24515;&#27969;&#31243;&#27891;&#36947;&#22270;</text><rect fill="none" height="22.6406" style="stroke:none;stroke-width:1.0;" width="1010.5" x="15" y="51.0645"/><ellipse cx="85" cy="88.7051" fill="#222222" rx="10" ry="10" style="stroke:#222222;stroke-width:1.0;"/><rect fill="#F1F1F1" height="35.0938" rx="12.5" ry="12.5" style="stroke:#181818;stroke-width:0.5;" width="68" x="51" y="118.7051"/><text fill="#000000" font-family="sans-serif" font-size="12" lengthAdjust="spacing" textLength="48" x="61" y="141.1621">&#30331;&#24405;&#31995;&#32479;</text><rect fill="#F1F1F1" height="35.0938" rx="12.5" ry="12.5" style="stroke:#181818;stroke-width:0.5;" width="128" x="21" y="173.7988"/><text fill="#000000" font-family="sans-serif" font-size="12" lengthAdjust="spacing" textLength="108" x="31" y="196.2559">&#36873;&#25321;&#24182;&#19978;&#20256;&#39135;&#29289;&#22270;&#29255;</text><rect fill="#F1F1F1" height="35.0938" rx="12.5" ry="12.5" style="stroke:#181818;stroke-width:0.5;" width="92" x="39" y="1703.1426"/><text fill="#000000" font-family="sans-serif" font-size="12" lengthAdjust="spacing" textLength="72" x="49" y="1725.5996">&#26597;&#30475;&#20998;&#26512;&#32467;&#26524;</text><ellipse cx="85" cy="1769.2363" fill="none" rx="11" ry="11" style="stroke:#222222;stroke-width:1.0;"/><ellipse cx="85" cy="1769.2363" fill="#222222" rx="6" ry="6" style="stroke:#222222;stroke-width:1.0;"/><line style="stroke:#000000;stroke-width:1.5;" x1="15" x2="15" y1="51.0645" y2="1780.2363"/><rect fill="#F1F1F1" height="35.0938" rx="12.5" ry="12.5" style="stroke:#181818;stroke-width:0.5;" width="128" x="221" y="228.8926"/><text fill="#000000" font-family="sans-serif" font-size="12" lengthAdjust="spacing" textLength="108" x="231" y="251.3496">&#26657;&#39564;&#22270;&#29255;&#26684;&#24335;&#19982;&#22823;&#23567;</text><polygon fill="#F1F1F1" points="249,283.9863,321,283.9863,333,295.9863,321,307.9863,249,307.9863,237,295.9863,249,283.9863" style="stroke:#181818;stroke-width:0.5;"/><text fill="#000000" font-family="sans-serif" font-size="11" lengthAdjust="spacing" textLength="72" x="249" y="300.4873">&#22270;&#29255;&#26159;&#21542;&#21512;&#27861;?</text><text fill="#000000" font-family="sans-serif" font-size="11" lengthAdjust="spacing" textLength="11" x="226" y="293.5693">&#26159;</text><text fill="#000000" font-family="sans-serif" font-size="11" lengthAdjust="spacing" textLength="11" x="333" y="293.5693">&#21542;</text><rect fill="#F1F1F1" height="35.0938" rx="12.5" ry="12.5" style="stroke:#181818;stroke-width:0.5;" width="116" x="159" y="317.9863"/><text fill="#000000" font-family="sans-serif" font-size="12" lengthAdjust="spacing" textLength="96" x="169" y="340.4434">&#35843;&#29992;&#21518;&#31471;&#35782;&#21035;&#25509;&#21475;</text><rect fill="#F1F1F1" height="35.0938" rx="12.5" ry="12.5" style="stroke:#181818;stroke-width:0.5;" width="116" x="295" y="317.9863"/><text fill="#000000" font-family="sans-serif" font-size="12" lengthAdjust="spacing" textLength="96" x="305" y="340.4434">&#25552;&#31034;&#29992;&#25143;&#37325;&#26032;&#19978;&#20256;</text><ellipse cx="353" cy="384.0801" fill="none" rx="11" ry="11" style="stroke:#222222;stroke-width:1.0;"/><ellipse cx="353" cy="384.0801" fill="#222222" rx="6" ry="6" style="stroke:#222222;stroke-width:1.0;"/><rect fill="#F1F1F1" height="35.0938" rx="12.5" ry="12.5" style="stroke:#181818;stroke-width:0.5;" width="92" x="239" y="1537.8613"/><text fill="#000000" font-family="sans-serif" font-size="12" lengthAdjust="spacing" textLength="72" x="249" y="1560.3184">&#23637;&#31034;&#35782;&#21035;&#32467;&#26524;</text><rect fill="#F1F1F1" height="35.0938" rx="12.5" ry="12.5" style="stroke:#181818;stroke-width:0.5;" width="92" x="239" y="1592.9551"/><text fill="#000000" font-family="sans-serif" font-size="12" lengthAdjust="spacing" textLength="72" x="249" y="1615.4121">&#23637;&#31034;&#33829;&#20859;&#25104;&#20998;</text><rect fill="#F1F1F1" height="35.0938" rx="12.5" ry="12.5" style="stroke:#181818;stroke-width:0.5;" width="164" x="203" y="1648.0488"/><text fill="#000000" font-family="sans-serif" font-size="12" lengthAdjust="spacing" textLength="144" x="213" y="1670.5059">&#23637;&#31034;&#39278;&#39135;&#24314;&#35758;&#21644;&#21487;&#35270;&#21270;&#22270;&#34920;</text><line style="stroke:#000000;stroke-width:1.5;" x1="153" x2="153" y1="51.0645" y2="1780.2363"/><rect fill="#F1F1F1" height="35.0938" rx="12.5" ry="12.5" style="stroke:#181818;stroke-width:0.5;" width="92" x="540" y="415.0801"/><text fill="#000000" font-family="sans-serif" font-size="12" lengthAdjust="spacing" textLength="72" x="550" y="437.5371">&#25509;&#25910;&#22270;&#29255;&#25991;&#20214;</text><rect fill="#F1F1F1" height="35.0938" rx="12.5" ry="12.5" style="stroke:#181818;stroke-width:0.5;" width="116" x="528" y="470.1738"/><text fill="#000000" font-family="sans-serif" font-size="12" lengthAdjust="spacing" textLength="96" x="538" y="492.6309">&#20445;&#23384;&#22270;&#29255;&#21040;&#26381;&#21153;&#22120;</text><rect fill="#F1F1F1" height="35.0938" rx="12.5" ry="12.5" style="stroke:#181818;stroke-width:0.5;" width="92" x="540" y="525.2676"/><text fill="#000000" font-family="sans-serif" font-size="12" lengthAdjust="spacing" textLength="72" x="550" y="547.7246">&#21019;&#24314;&#35782;&#21035;&#35760;&#24405;</text><rect fill="#F1F1F1" height="35.0938" rx="12.5" ry="12.5" style="stroke:#181818;stroke-width:0.5;" width="116" x="528" y="580.3613"/><text fill="#000000" font-family="sans-serif" font-size="12" lengthAdjust="spacing" textLength="96" x="538" y="602.8184">&#35843;&#29992;&#27169;&#22411;&#25512;&#29702;&#26381;&#21153;</text><polygon fill="#F1F1F1" points="550,855.8301,622,855.8301,634,867.8301,622,879.8301,550,879.8301,538,867.8301,550,855.8301" style="stroke:#181818;stroke-width:0.5;"/><text fill="#000000" font-family="sans-serif" font-size="11" lengthAdjust="spacing" textLength="72" x="550" y="872.3311">&#35782;&#21035;&#26159;&#21542;&#25104;&#21151;?</text><text fill="#000000" font-family="sans-serif" font-size="11" lengthAdjust="spacing" textLength="22" x="516" y="865.4131">&#25104;&#21151;</text><text fill="#000000" font-family="sans-serif" font-size="11" lengthAdjust="spacing" textLength="22" x="634" y="865.4131">&#22833;&#36133;</text><rect fill="#F1F1F1" height="35.0938" rx="12.5" ry="12.5" style="stroke:#181818;stroke-width:0.5;" width="164" x="421" y="889.8301"/><text fill="#000000" font-family="sans-serif" font-size="12" lengthAdjust="spacing" textLength="144" x="431" y="912.2871">&#26681;&#25454;&#39135;&#29289;&#31867;&#21035;&#26597;&#35810;&#33829;&#20859;&#25968;&#25454;</text><rect fill="#F1F1F1" height="35.0938" rx="12.5" ry="12.5" style="stroke:#181818;stroke-width:0.5;" width="128" x="605" y="889.8301"/><text fill="#000000" font-family="sans-serif" font-size="12" lengthAdjust="spacing" textLength="108" x="615" y="912.2871">&#26356;&#26032;&#35782;&#21035;&#29366;&#24577;&#20026;&#22833;&#36133;</text><rect fill="#F1F1F1" height="35.0938" rx="12.5" ry="12.5" style="stroke:#181818;stroke-width:0.5;" width="92" x="623" y="944.9238"/><text fill="#000000" font-family="sans-serif" font-size="12" lengthAdjust="spacing" textLength="72" x="633" y="967.3809">&#36820;&#22238;&#22833;&#36133;&#20449;&#24687;</text><ellipse cx="669" cy="1011.0176" fill="none" rx="11" ry="11" style="stroke:#222222;stroke-width:1.0;"/><ellipse cx="669" cy="1011.0176" fill="#222222" rx="6" ry="6" style="stroke:#222222;stroke-width:1.0;"/><rect fill="#F1F1F1" height="35.0938" rx="12.5" ry="12.5" style="stroke:#181818;stroke-width:0.5;" width="128" x="522" y="1317.4863"/><text fill="#000000" font-family="sans-serif" font-size="12" lengthAdjust="spacing" textLength="108" x="532" y="1339.9434">&#35745;&#31639;&#28909;&#37327;&#19982;&#33829;&#20859;&#25104;&#20998;</text><rect fill="#F1F1F1" height="35.0938" rx="12.5" ry="12.5" style="stroke:#181818;stroke-width:0.5;" width="116" x="528" y="1372.5801"/><text fill="#000000" font-family="sans-serif" font-size="12" lengthAdjust="spacing" textLength="96" x="538" y="1395.0371">&#29983;&#25104;&#33829;&#20859;&#20998;&#26512;&#32467;&#35770;</text><rect fill="#F1F1F1" height="35.0938" rx="12.5" ry="12.5" style="stroke:#181818;stroke-width:0.5;" width="92" x="540" y="1427.6738"/><text fill="#000000" font-family="sans-serif" font-size="12" lengthAdjust="spacing" textLength="72" x="550" y="1450.1309">&#29983;&#25104;&#39278;&#39135;&#24314;&#35758;</text><rect fill="#F1F1F1" height="35.0938" rx="12.5" ry="12.5" style="stroke:#181818;stroke-width:0.5;" width="92" x="540" y="1482.7676"/><text fill="#000000" font-family="sans-serif" font-size="12" lengthAdjust="spacing" textLength="72" x="550" y="1505.2246">&#23553;&#35013;&#21709;&#24212;&#25968;&#25454;</text><line style="stroke:#000000;stroke-width:1.5;" x1="415" x2="415" y1="51.0645" y2="1780.2363"/><rect fill="#F1F1F1" height="35.0938" rx="12.5" ry="12.5" style="stroke:#181818;stroke-width:0.5;" width="92" x="772.5" y="635.4551"/><text fill="#000000" font-family="sans-serif" font-size="12" lengthAdjust="spacing" textLength="72" x="782.5" y="657.9121">&#21152;&#36733;&#27169;&#22411;&#26435;&#37325;</text><rect fill="#F1F1F1" height="35.0938" rx="12.5" ry="12.5" style="stroke:#181818;stroke-width:0.5;" width="116" x="760.5" y="690.5488"/><text fill="#000000" font-family="sans-serif" font-size="12" lengthAdjust="spacing" textLength="96" x="770.5" y="713.0059">&#23545;&#22270;&#29255;&#36827;&#34892;&#39044;&#22788;&#29702;</text><rect fill="#F1F1F1" height="35.0938" rx="12.5" ry="12.5" style="stroke:#181818;stroke-width:0.5;" width="116" x="760.5" y="745.6426"/><text fill="#000000" font-family="sans-serif" font-size="12" lengthAdjust="spacing" textLength="96" x="770.5" y="768.0996">&#25191;&#34892;&#39135;&#29289;&#20998;&#31867;&#25512;&#29702;</text><rect fill="#F1F1F1" height="35.0938" rx="12.5" ry="12.5" style="stroke:#181818;stroke-width:0.5;" width="140" x="748.5" y="800.7363"/><text fill="#000000" font-family="sans-serif" font-size="12" lengthAdjust="spacing" textLength="120" x="758.5" y="823.1934">&#36820;&#22238;&#39135;&#29289;&#31867;&#21035;&#21644;&#32622;&#20449;&#24230;</text><line style="stroke:#000000;stroke-width:1.5;" x1="737" x2="737" y1="51.0645" y2="1780.2363"/><rect fill="#F1F1F1" height="35.0938" rx="12.5" ry="12.5" style="stroke:#181818;stroke-width:0.5;" width="104" x="910" y="1042.0176"/><text fill="#000000" font-family="sans-serif" font-size="12" lengthAdjust="spacing" textLength="84" x="920" y="1064.4746">&#26597;&#35810;&#39135;&#29289;&#31867;&#21035;&#34920;</text><rect fill="#F1F1F1" height="35.0938" rx="12.5" ry="12.5" style="stroke:#181818;stroke-width:0.5;" width="104" x="910" y="1097.1113"/><text fill="#000000" font-family="sans-serif" font-size="12" lengthAdjust="spacing" textLength="84" x="920" y="1119.5684">&#26597;&#35810;&#33829;&#20859;&#20449;&#24687;&#34920;</text><rect fill="#F1F1F1" height="35.0938" rx="12.5" ry="12.5" style="stroke:#181818;stroke-width:0.5;" width="116" x="904" y="1152.2051"/><text fill="#000000" font-family="sans-serif" font-size="12" lengthAdjust="spacing" textLength="96" x="914" y="1174.6621">&#20445;&#23384;&#35782;&#21035;&#32467;&#26524;&#26126;&#32454;</text><rect fill="#F1F1F1" height="35.0938" rx="12.5" ry="12.5" style="stroke:#181818;stroke-width:0.5;" width="116" x="904" y="1207.2988"/><text fill="#000000" font-family="sans-serif" font-size="12" lengthAdjust="spacing" textLength="96" x="914" y="1229.7559">&#20445;&#23384;&#33829;&#20859;&#20998;&#26512;&#32467;&#26524;</text><rect fill="#F1F1F1" height="35.0938" rx="12.5" ry="12.5" style="stroke:#181818;stroke-width:0.5;" width="92" x="916" y="1262.3926"/><text fill="#000000" font-family="sans-serif" font-size="12" lengthAdjust="spacing" textLength="72" x="926" y="1284.8496">&#20445;&#23384;&#25512;&#33616;&#32467;&#26524;</text><line style="stroke:#000000;stroke-width:1.5;" x1="898" x2="898" y1="51.0645" y2="1780.2363"/><line style="stroke:#000000;stroke-width:1.5;" x1="1024" x2="1024" y1="51.0645" y2="1780.2363"/><line style="stroke:#181818;stroke-width:1.0;" x1="85" x2="85" y1="98.7051" y2="118.7051"/><polygon fill="#181818" points="81,108.7051,85,118.7051,89,108.7051,85,112.7051" style="stroke:#181818;stroke-width:1.0;"/><line style="stroke:#181818;stroke-width:1.0;" x1="85" x2="85" y1="153.7988" y2="173.7988"/><polygon fill="#181818" points="81,163.7988,85,173.7988,89,163.7988,85,167.7988" style="stroke:#181818;stroke-width:1.0;"/><line style="stroke:#181818;stroke-width:1.0;" x1="85" x2="85" y1="1738.2363" y2="1758.2363"/><polygon fill="#181818" points="81,1748.2363,85,1758.2363,89,1748.2363,85,1752.2363" style="stroke:#181818;stroke-width:1.0;"/><line style="stroke:#181818;stroke-width:1.0;" x1="353" x2="353" y1="353.0801" y2="373.0801"/><polygon fill="#181818" points="349,363.0801,353,373.0801,357,363.0801,353,367.0801" style="stroke:#181818;stroke-width:1.0;"/><line style="stroke:#181818;stroke-width:1.0;" x1="237" x2="217" y1="295.9863" y2="295.9863"/><line style="stroke:#181818;stroke-width:1.0;" x1="217" x2="217" y1="295.9863" y2="317.9863"/><polygon fill="#181818" points="213,307.9863,217,317.9863,221,307.9863,217,311.9863" style="stroke:#181818;stroke-width:1.0;"/><line style="stroke:#181818;stroke-width:1.0;" x1="333" x2="353" y1="295.9863" y2="295.9863"/><line style="stroke:#181818;stroke-width:1.0;" x1="353" x2="353" y1="295.9863" y2="317.9863"/><polygon fill="#181818" points="349,307.9863,353,317.9863,357,307.9863,353,311.9863" style="stroke:#181818;stroke-width:1.0;"/><line style="stroke:#181818;stroke-width:1.0;" x1="217" x2="217" y1="353.0801" y2="400.0801"/><line style="stroke:#181818;stroke-width:1.0;" x1="217" x2="586" y1="400.0801" y2="400.0801"/><line style="stroke:#181818;stroke-width:1.0;" x1="586" x2="586" y1="400.0801" y2="415.0801"/><polygon fill="#181818" points="582,405.0801,586,415.0801,590,405.0801,586,409.0801" style="stroke:#181818;stroke-width:1.0;"/><line style="stroke:#181818;stroke-width:1.0;" x1="285" x2="285" y1="263.9863" y2="283.9863"/><polygon fill="#181818" points="281,273.9863,285,283.9863,289,273.9863,285,277.9863" style="stroke:#181818;stroke-width:1.0;"/><line style="stroke:#181818;stroke-width:1.0;" x1="285" x2="285" y1="1572.9551" y2="1592.9551"/><polygon fill="#181818" points="281,1582.9551,285,1592.9551,289,1582.9551,285,1586.9551" style="stroke:#181818;stroke-width:1.0;"/><line style="stroke:#181818;stroke-width:1.0;" x1="285" x2="285" y1="1628.0488" y2="1648.0488"/><polygon fill="#181818" points="281,1638.0488,285,1648.0488,289,1638.0488,285,1642.0488" style="stroke:#181818;stroke-width:1.0;"/><line style="stroke:#181818;stroke-width:1.0;" x1="586" x2="586" y1="450.1738" y2="470.1738"/><polygon fill="#181818" points="582,460.1738,586,470.1738,590,460.1738,586,464.1738" style="stroke:#181818;stroke-width:1.0;"/><line style="stroke:#181818;stroke-width:1.0;" x1="586" x2="586" y1="505.2676" y2="525.2676"/><polygon fill="#181818" points="582,515.2676,586,525.2676,590,515.2676,586,519.2676" style="stroke:#181818;stroke-width:1.0;"/><line style="stroke:#181818;stroke-width:1.0;" x1="586" x2="586" y1="560.3613" y2="580.3613"/><polygon fill="#181818" points="582,570.3613,586,580.3613,590,570.3613,586,574.3613" style="stroke:#181818;stroke-width:1.0;"/><line style="stroke:#181818;stroke-width:1.0;" x1="669" x2="669" y1="924.9238" y2="944.9238"/><polygon fill="#181818" points="665,934.9238,669,944.9238,673,934.9238,669,938.9238" style="stroke:#181818;stroke-width:1.0;"/><line style="stroke:#181818;stroke-width:1.0;" x1="669" x2="669" y1="980.0176" y2="1000.0176"/><polygon fill="#181818" points="665,990.0176,669,1000.0176,673,990.0176,669,994.0176" style="stroke:#181818;stroke-width:1.0;"/><line style="stroke:#181818;stroke-width:1.0;" x1="538" x2="503" y1="867.8301" y2="867.8301"/><line style="stroke:#181818;stroke-width:1.0;" x1="503" x2="503" y1="867.8301" y2="889.8301"/><polygon fill="#181818" points="499,879.8301,503,889.8301,507,879.8301,503,883.8301" style="stroke:#181818;stroke-width:1.0;"/><line style="stroke:#181818;stroke-width:1.0;" x1="634" x2="669" y1="867.8301" y2="867.8301"/><line style="stroke:#181818;stroke-width:1.0;" x1="669" x2="669" y1="867.8301" y2="889.8301"/><polygon fill="#181818" points="665,879.8301,669,889.8301,673,879.8301,669,883.8301" style="stroke:#181818;stroke-width:1.0;"/><line style="stroke:#181818;stroke-width:1.0;" x1="503" x2="503" y1="924.9238" y2="1027.0176"/><line style="stroke:#181818;stroke-width:1.0;" x1="503" x2="962" y1="1027.0176" y2="1027.0176"/><line style="stroke:#181818;stroke-width:1.0;" x1="962" x2="962" y1="1027.0176" y2="1042.0176"/><polygon fill="#181818" points="958,1032.0176,962,1042.0176,966,1032.0176,962,1036.0176" style="stroke:#181818;stroke-width:1.0;"/><line style="stroke:#181818;stroke-width:1.0;" x1="586" x2="586" y1="1352.5801" y2="1372.5801"/><polygon fill="#181818" points="582,1362.5801,586,1372.5801,590,1362.5801,586,1366.5801" style="stroke:#181818;stroke-width:1.0;"/><line style="stroke:#181818;stroke-width:1.0;" x1="586" x2="586" y1="1407.6738" y2="1427.6738"/><polygon fill="#181818" points="582,1417.6738,586,1427.6738,590,1417.6738,586,1421.6738" style="stroke:#181818;stroke-width:1.0;"/><line style="stroke:#181818;stroke-width:1.0;" x1="586" x2="586" y1="1462.7676" y2="1482.7676"/><polygon fill="#181818" points="582,1472.7676,586,1482.7676,590,1472.7676,586,1476.7676" style="stroke:#181818;stroke-width:1.0;"/><line style="stroke:#181818;stroke-width:1.0;" x1="818.5" x2="818.5" y1="670.5488" y2="690.5488"/><polygon fill="#181818" points="814.5,680.5488,818.5,690.5488,822.5,680.5488,818.5,684.5488" style="stroke:#181818;stroke-width:1.0;"/><line style="stroke:#181818;stroke-width:1.0;" x1="818.5" x2="818.5" y1="725.6426" y2="745.6426"/><polygon fill="#181818" points="814.5,735.6426,818.5,745.6426,822.5,735.6426,818.5,739.6426" style="stroke:#181818;stroke-width:1.0;"/><line style="stroke:#181818;stroke-width:1.0;" x1="818.5" x2="818.5" y1="780.7363" y2="800.7363"/><polygon fill="#181818" points="814.5,790.7363,818.5,800.7363,822.5,790.7363,818.5,794.7363" style="stroke:#181818;stroke-width:1.0;"/><line style="stroke:#181818;stroke-width:1.0;" x1="962" x2="962" y1="1077.1113" y2="1097.1113"/><polygon fill="#181818" points="958,1087.1113,962,1097.1113,966,1087.1113,962,1091.1113" style="stroke:#181818;stroke-width:1.0;"/><line style="stroke:#181818;stroke-width:1.0;" x1="962" x2="962" y1="1132.2051" y2="1152.2051"/><polygon fill="#181818" points="958,1142.2051,962,1152.2051,966,1142.2051,962,1146.2051" style="stroke:#181818;stroke-width:1.0;"/><line style="stroke:#181818;stroke-width:1.0;" x1="962" x2="962" y1="1187.2988" y2="1207.2988"/><polygon fill="#181818" points="958,1197.2988,962,1207.2988,966,1197.2988,962,1201.2988" style="stroke:#181818;stroke-width:1.0;"/><line style="stroke:#181818;stroke-width:1.0;" x1="962" x2="962" y1="1242.3926" y2="1262.3926"/><polygon fill="#181818" points="958,1252.3926,962,1262.3926,966,1252.3926,962,1256.3926" style="stroke:#181818;stroke-width:1.0;"/><line style="stroke:#181818;stroke-width:1.0;" x1="85" x2="85" y1="208.8926" y2="213.8926"/><line style="stroke:#181818;stroke-width:1.0;" x1="85" x2="285" y1="213.8926" y2="213.8926"/><line style="stroke:#181818;stroke-width:1.0;" x1="285" x2="285" y1="213.8926" y2="228.8926"/><polygon fill="#181818" points="281,218.8926,285,228.8926,289,218.8926,285,222.8926" style="stroke:#181818;stroke-width:1.0;"/><line style="stroke:#181818;stroke-width:1.0;" x1="586" x2="586" y1="615.4551" y2="620.4551"/><line style="stroke:#181818;stroke-width:1.0;" x1="586" x2="818.5" y1="620.4551" y2="620.4551"/><line style="stroke:#181818;stroke-width:1.0;" x1="818.5" x2="818.5" y1="620.4551" y2="635.4551"/><polygon fill="#181818" points="814.5,625.4551,818.5,635.4551,822.5,625.4551,818.5,629.4551" style="stroke:#181818;stroke-width:1.0;"/><line style="stroke:#181818;stroke-width:1.0;" x1="818.5" x2="818.5" y1="835.8301" y2="840.8301"/><line style="stroke:#181818;stroke-width:1.0;" x1="818.5" x2="586" y1="840.8301" y2="840.8301"/><line style="stroke:#181818;stroke-width:1.0;" x1="586" x2="586" y1="840.8301" y2="855.8301"/><polygon fill="#181818" points="582,845.8301,586,855.8301,590,845.8301,586,849.8301" style="stroke:#181818;stroke-width:1.0;"/><line style="stroke:#181818;stroke-width:1.0;" x1="962" x2="962" y1="1297.4863" y2="1302.4863"/><line style="stroke:#181818;stroke-width:1.0;" x1="962" x2="586" y1="1302.4863" y2="1302.4863"/><line style="stroke:#181818;stroke-width:1.0;" x1="586" x2="586" y1="1302.4863" y2="1317.4863"/><polygon fill="#181818" points="582,1307.4863,586,1317.4863,590,1307.4863,586,1311.4863" style="stroke:#181818;stroke-width:1.0;"/><line style="stroke:#181818;stroke-width:1.0;" x1="586" x2="586" y1="1517.8613" y2="1522.8613"/><line style="stroke:#181818;stroke-width:1.0;" x1="586" x2="285" y1="1522.8613" y2="1522.8613"/><line style="stroke:#181818;stroke-width:1.0;" x1="285" x2="285" y1="1522.8613" y2="1537.8613"/><polygon fill="#181818" points="281,1527.8613,285,1537.8613,289,1527.8613,285,1531.8613" style="stroke:#181818;stroke-width:1.0;"/><line style="stroke:#181818;stroke-width:1.0;" x1="285" x2="285" y1="1683.1426" y2="1688.1426"/><line style="stroke:#181818;stroke-width:1.0;" x1="285" x2="85" y1="1688.1426" y2="1688.1426"/><line style="stroke:#181818;stroke-width:1.0;" x1="85" x2="85" y1="1688.1426" y2="1703.1426"/><polygon fill="#181818" points="81,1693.1426,85,1703.1426,89,1693.1426,85,1697.1426" style="stroke:#181818;stroke-width:1.0;"/><text fill="#000000" font-family="sans-serif" font-size="18" lengthAdjust="spacing" textLength="72" x="48" y="69.75">&#26222;&#36890;&#29992;&#25143;</text><text fill="#000000" font-family="sans-serif" font-size="18" lengthAdjust="spacing" textLength="77" x="245.5" y="69.75">Vue3&#21069;&#31471;</text><text fill="#000000" font-family="sans-serif" font-size="18" lengthAdjust="spacing" textLength="98" x="527" y="69.75">FastAPI&#21518;&#31471;</text><text fill="#000000" font-family="sans-serif" font-size="18" lengthAdjust="spacing" textLength="151" x="742" y="69.75">YOLOv11&#27169;&#22411;&#26381;&#21153;</text><text fill="#000000" font-family="sans-serif" font-size="18" lengthAdjust="spacing" textLength="114" x="904" y="69.75">MySQL&#25968;&#25454;&#24211;</text><!--SRC=[PLDDJzj05BpxL-G8HzHRVAXwgLI9YbQLAlM8rA16GhHgt4gLE1054kVRQX8A3IGnv8iYRAFGDDX9ysVytgx_HTzwtH3WPizuPsRdFMj9RJiHmyu4vXdydMR38ev6GRe6pR-Aiel7Lh3tazM7gF_PLLBQvcTDYRDZ3sODDlAOrrQLUB2Nn-85t8xzIS6VTeBpDijVq76MpwaayVPBuWdao-pItbNYs363NoL9OcSAqwe_gK1t04vLLP9RiPM8EhB1w8EXuwZnT3McVKZin5O8N5LYiJXtCXG8Z0f9SZiB-YLMUb0zLvN4TYf14aO__0wh1kkwCdkGA-EX8mEgHAQqZv-KnCxxv1ObVBwPqfwzUY4LHSXA3-lZACbXplV6T4j_VWfNHn84tS6JCXHCE1uI1NeJF5T6uPP3tH0eK-BGX5OHAqDcPEKHKScxZVMDhsjh4Hd2P0k53f_D8l0qGv65jdqhFVcyoSrISBOFtNqI8mhp0u78klKik_QaZp2Vrw7PaXJXb0k-bzZCykSck7tryPr5zL6NOVMe6r1etrKVlifMExTOjfQbiTtZzXatUd3WOSCXTZ69xZM_wSbZpHiQWBHWXJ7kfVs9Atar76gOM0AK4jFsep6z_FRczReq0BScvXGQBqVXffZ7SY2f9N4vmYY3LyFM2HvLc9Uzey8Zr2Ms3Fd1Wg9gUNa1FjuPRfdC-i4oLq5Eh7JK1jMc2tbMRzFp0tbkkGigw8bAnHPPbfYwa-Rd1r0hWrl_N-c3Fmck6xJTovTH5-1zSmakEz0oGDNcWooK3ccxmdOU_kkYHNPIl5z6E8z_]--></g></svg>